<svg version="1.1" xmlns="http://www.w3.org/2000/svg" xmlns:xlink="http://www.w3.org/1999/xlink" width="635.0769230769231" height="440"><style xmlns="http://www.w3.org/1999/xhtml"></style><defs/><g transform="translate(0,0)"><path fill="none" stroke="none" stroke-dasharray="undefined" vector-effect="non-scaling-stroke"/><g><rect fill="#FFFFFF" stroke="none" x="0" y="0" width="635.0769230769231" height="440"/></g><g data-width="190" data-height="90" data-layerId="uteZPLX7LhTE" transform="translate(0.5,0.5) matrix(1,0,0,1,420,90.00000000000003)"><g><g transform="translate(0,0) scale(1.9,0.9)"><g><path fill="#e2e2e2" stroke="#000000" stroke-dasharray="2,2" vector-effect="non-scaling-stroke" d="M 0 0 L 100 0 Q 100 0 100 0 L 100 100 Q 100 100 100 100 L 0 100 Q 0 100 0 100 L 0 0 Q 0 0 0 0 Z" stroke-miterlimit="10"/><g transform="scale(0.5263157894736842,1.1111111111111112)"/></g></g></g></g><g transform="matrix(1,0,0,1,423,121)"><g><g><rect fill="rgb(0,0,0)" stroke="none" x="0" y="0" width="184" height="28" fill-opacity="0"/></g></g><g><g><rect fill="rgb(0,0,0)" stroke="none" x="0" y="0" width="184" height="14" fill-opacity="0"/></g></g><g><g><rect fill="rgb(0,0,0)" stroke="none" x="60.64155960083008" y="0" width="64" height="14" fill-opacity="0"/></g></g><g><g><rect fill="rgb(0,0,0)" stroke="none" x="60.64155960083008" y="0" width="64" height="14" fill-opacity="0"/></g><text fill="rgb(0, 0, 0)" stroke="none" font-family="Arial" font-size="12px" font-style="normal" font-weight="normal" text-decoration="" line-height="14.000000953674316px" x="60.64155960083008" y="11" data-layerId="uteZPLX7LhTE">Окружение</text></g><g><g><rect fill="rgb(0,0,0)" stroke="none" x="0" y="13.913043975830078" width="184" height="14" fill-opacity="0"/></g></g><g><g><rect fill="rgb(0,0,0)" stroke="none" x="82.25798797607422" y="13.913043975830078" width="21" height="14" fill-opacity="0"/></g></g><g><g><rect fill="rgb(0,0,0)" stroke="none" x="82.25798797607422" y="13.913043975830078" width="21" height="14" fill-opacity="0"/></g><text fill="rgb(0, 0, 0)" stroke="none" font-family="Arial" font-size="12px" font-style="normal" font-weight="normal" text-decoration="" line-height="14.000000953674316px" x="82.25798797607422" y="24.913043975830078" data-layerId="uteZPLX7LhTE">dev</text></g></g><g data-width="130" data-height="40" data-layerId="uteZPLX7LhTE" transform="translate(0.5,0.5) matrix(1,0,0,1,210,115.00000000000003)"><g><g transform="translate(0,0) scale(1.3,0.4)"><g><path fill="#e2e2e2" stroke="#000000" data-layerId="uteZPLX7LhTE" stroke-dasharray="1.7976931348623157e+308" vector-effect="non-scaling-stroke" d="M 0 0 L 100 0 Q 100 0 100 0 L 100 100 Q 100 100 100 100 L 0 100 Q 0 100 0 100 L 0 0 Q 0 0 0 0 Z" stroke-miterlimit="10"/><g transform="scale(0.7692307692307692,2.5)"/></g></g></g></g><g transform="matrix(1,0,0,1,212,128)"><g><g><rect fill="rgb(0,0,0)" stroke="none" x="0" y="0" width="126" height="14" fill-opacity="0"/></g></g><g><g><rect fill="rgb(0,0,0)" stroke="none" x="0" y="0" width="126" height="14" fill-opacity="0"/></g></g><g><g><rect fill="rgb(0,0,0)" stroke="none" x="37.63162612915039" y="0" width="51" height="14" fill-opacity="0"/></g><text fill="rgb(0, 0, 0)" stroke="none" font-family="Arial" font-size="12px" font-style="normal" font-weight="bold" text-decoration="" line-height="14.000000953674316px" x="37.39130401611328" y="11" data-layerId="uteZPLX7LhTE">DTM</text><text fill="rgb(0, 0, 0)" stroke="none" font-family="Arial" font-size="12px" font-style="normal" font-weight="bold" text-decoration="" line-height="14.000000953674316px" x="66.95652770996094" y="11" data-layerId="uteZPLX7LhTE">dev</text></g></g><g data-layerId="uteZPLX7LhTE" transform="matrix(1,0,0,1,325.5,120.50000000000003)"><g transform="translate(0,0)"><path fill="none" stroke="none" stroke-dasharray="undefined" vector-effect="non-scaling-stroke"/><g transform="translate(-360,-135.00000000000003) translate(34.5,14.5) matrix(1,0,0,1,0,0)"><g><g><path fill="none" stroke="#000000" stroke-dasharray="undefined" vector-effect="non-scaling-stroke" d="M 340 135.00000000000003 L 356.6666666666667 135.00000000000003 Q 366.6666666666667 135.00000000000003 376.6666666666667 135.00000000000003 L 383.3333333333333 135.00000000000003 Q 393.3333333333333 135.00000000000003 403.3333333333333 135.00000000000003 L 420 135.00000000000003" stroke-miterlimit="10"/></g></g></g></g></g><g data-width="190" data-height="90" data-layerId="uteZPLX7LhTE" transform="translate(0.5,0.5) matrix(1,0,0,1,420,180)"><g><g transform="translate(0,0) scale(1.9,0.9)"><g><path fill="#e2e2e2" stroke="#000000" data-layerId="uteZPLX7LhTE" stroke-dasharray="2,2" vector-effect="non-scaling-stroke" d="M 0 0 L 100 0 Q 100 0 100 0 L 100 100 Q 100 100 100 100 L 0 100 Q 0 100 0 100 L 0 0 Q 0 0 0 0 Z" stroke-miterlimit="10"/><g transform="scale(0.5263157894736842,1.1111111111111112)"/></g></g></g></g><g transform="matrix(1,0,0,1,423,211)"><g><g><rect fill="rgb(0,0,0)" stroke="none" x="0" y="0" width="184" height="28" fill-opacity="0"/></g></g><g><g><rect fill="rgb(0,0,0)" stroke="none" x="0" y="0" width="184" height="14" fill-opacity="0"/></g></g><g><g><rect fill="rgb(0,0,0)" stroke="none" x="60.64155960083008" y="0" width="64" height="14" fill-opacity="0"/></g></g><g><g><rect fill="rgb(0,0,0)" stroke="none" x="60.64155960083008" y="0" width="64" height="14" fill-opacity="0"/></g><text fill="rgb(0, 0, 0)" stroke="none" font-family="Arial" font-size="12px" font-style="normal" font-weight="normal" text-decoration="" line-height="14.000000953674316px" x="60.64155960083008" y="11" data-layerId="uteZPLX7LhTE">Окружение</text></g><g><g><rect fill="rgb(0,0,0)" stroke="none" x="0" y="13.913043975830078" width="184" height="14" fill-opacity="0"/></g></g><g><g><rect fill="rgb(0,0,0)" stroke="none" x="78.87567901611328" y="13.913043975830078" width="28" height="14" fill-opacity="0"/></g></g><g><g><rect fill="rgb(0,0,0)" stroke="none" x="78.87567901611328" y="13.913043975830078" width="28" height="14" fill-opacity="0"/></g><text fill="rgb(0, 0, 0)" stroke="none" font-family="Arial" font-size="12px" font-style="normal" font-weight="normal" text-decoration="" line-height="14.000000953674316px" x="78.87567901611328" y="24.913043975830078" data-layerId="uteZPLX7LhTE">test1</text></g></g><g data-width="130" data-height="40" data-layerId="uteZPLX7LhTE" transform="translate(0.5,0.5) matrix(1,0,0,1,210,205)"><g><g transform="translate(0,0) scale(1.3,0.4)"><g><path fill="#e2e2e2" stroke="#000000" data-layerId="uteZPLX7LhTE" stroke-dasharray="1.7976931348623157e+308" vector-effect="non-scaling-stroke" d="M 0 0 L 100 0 Q 100 0 100 0 L 100 100 Q 100 100 100 100 L 0 100 Q 0 100 0 100 L 0 0 Q 0 0 0 0 Z" stroke-miterlimit="10"/><g transform="scale(0.7692307692307692,2.5)"/></g></g></g></g><g transform="matrix(1,0,0,1,212,218)"><g><g><rect fill="rgb(0,0,0)" stroke="none" x="0" y="0" width="126" height="14" fill-opacity="0"/></g></g><g><g><rect fill="rgb(0,0,0)" stroke="none" x="0" y="0" width="126" height="14" fill-opacity="0"/></g></g><g><g><rect fill="rgb(0,0,0)" stroke="none" x="33.91049575805664" y="0" width="59" height="14" fill-opacity="0"/></g><text fill="rgb(0, 0, 0)" stroke="none" font-family="Arial" font-size="12px" font-style="normal" font-weight="bold" text-decoration="" line-height="14.000000953674316px" x="33.043479919433594" y="11" data-layerId="uteZPLX7LhTE">DTM</text><text fill="rgb(0, 0, 0)" stroke="none" font-family="Arial" font-size="12px" font-style="normal" font-weight="bold" text-decoration="" line-height="14.000000953674316px" x="63.47826385498047" y="11" data-layerId="uteZPLX7LhTE">test1</text></g></g><g data-layerId="uteZPLX7LhTE" transform="matrix(1,0,0,1,325.5,210.5)"><g transform="translate(0,0)"><path fill="none" stroke="none" stroke-dasharray="undefined" vector-effect="non-scaling-stroke"/><g transform="translate(-360,-225) translate(34.5,14.5) matrix(1,0,0,1,0,0)"><g><g><path fill="none" stroke="#000000" stroke-dasharray="undefined" vector-effect="non-scaling-stroke" d="M 340 225 L 356.6666666666667 225 Q 366.6666666666667 225 376.6666666666667 225 L 383.3333333333333 225 Q 393.3333333333333 225 403.3333333333333 225 L 420 225" stroke-miterlimit="10"/></g></g></g></g></g><g data-width="190" data-height="90" data-layerId="uteZPLX7LhTE" transform="translate(0.5,0.5) matrix(1,0,0,1,420,270)"><g><g transform="translate(0,0) scale(1.9,0.9)"><g><path fill="#e2e2e2" stroke="#000000" data-layerId="uteZPLX7LhTE" stroke-dasharray="2,2" vector-effect="non-scaling-stroke" d="M 0 0 L 100 0 Q 100 0 100 0 L 100 100 Q 100 100 100 100 L 0 100 Q 0 100 0 100 L 0 0 Q 0 0 0 0 Z" stroke-miterlimit="10"/><g transform="scale(0.5263157894736842,1.1111111111111112)"/></g></g></g></g><g transform="matrix(1,0,0,1,423,301)"><g><g><rect fill="rgb(0,0,0)" stroke="none" x="0" y="0" width="184" height="28" fill-opacity="0"/></g></g><g><g><rect fill="rgb(0,0,0)" stroke="none" x="0" y="0" width="184" height="14" fill-opacity="0"/></g></g><g><g><rect fill="rgb(0,0,0)" stroke="none" x="60.64155960083008" y="0" width="64" height="14" fill-opacity="0"/></g></g><g><g><rect fill="rgb(0,0,0)" stroke="none" x="60.64155960083008" y="0" width="64" height="14" fill-opacity="0"/></g><text fill="rgb(0, 0, 0)" stroke="none" font-family="Arial" font-size="12px" font-style="normal" font-weight="normal" text-decoration="" line-height="14.000000953674316px" x="60.64155960083008" y="11" data-layerId="uteZPLX7LhTE">Окружение</text></g><g><g><rect fill="rgb(0,0,0)" stroke="none" x="0" y="13.913043975830078" width="184" height="14" fill-opacity="0"/></g></g><g><g><rect fill="rgb(0,0,0)" stroke="none" x="78.87567901611328" y="13.913043975830078" width="28" height="14" fill-opacity="0"/></g></g><g><g><rect fill="rgb(0,0,0)" stroke="none" x="78.87567901611328" y="13.913043975830078" width="28" height="14" fill-opacity="0"/></g><text fill="rgb(0, 0, 0)" stroke="none" font-family="Arial" font-size="12px" font-style="normal" font-weight="normal" text-decoration="" line-height="14.000000953674316px" x="78.87567901611328" y="24.913043975830078" data-layerId="uteZPLX7LhTE">test2</text></g></g><g data-width="130" data-height="40" data-layerId="uteZPLX7LhTE" transform="translate(0.5,0.5) matrix(1,0,0,1,210,295)"><g><g transform="translate(0,0) scale(1.3,0.4)"><g><path fill="#e2e2e2" stroke="#000000" data-layerId="uteZPLX7LhTE" stroke-dasharray="1.7976931348623157e+308" vector-effect="non-scaling-stroke" d="M 0 0 L 100 0 Q 100 0 100 0 L 100 100 Q 100 100 100 100 L 0 100 Q 0 100 0 100 L 0 0 Q 0 0 0 0 Z" stroke-miterlimit="10"/><g transform="scale(0.7692307692307692,2.5)"/></g></g></g></g><g transform="matrix(1,0,0,1,212,308)"><g><g><rect fill="rgb(0,0,0)" stroke="none" x="0" y="0" width="126" height="14" fill-opacity="0"/></g></g><g><g><rect fill="rgb(0,0,0)" stroke="none" x="0" y="0" width="126" height="14" fill-opacity="0"/></g></g><g><g><rect fill="rgb(0,0,0)" stroke="none" x="33.91049575805664" y="0" width="59" height="14" fill-opacity="0"/></g><text fill="rgb(0, 0, 0)" stroke="none" font-family="Arial" font-size="12px" font-style="normal" font-weight="bold" text-decoration="" line-height="14.000000953674316px" x="33.043479919433594" y="11" data-layerId="uteZPLX7LhTE">DTM</text><text fill="rgb(0, 0, 0)" stroke="none" font-family="Arial" font-size="12px" font-style="normal" font-weight="bold" text-decoration="" line-height="14.000000953674316px" x="63.47826385498047" y="11" data-layerId="uteZPLX7LhTE">test2</text></g></g><g data-layerId="uteZPLX7LhTE" transform="matrix(1,0,0,1,325.5,300.5)"><g transform="translate(0,0)"><path fill="none" stroke="none" stroke-dasharray="undefined" vector-effect="non-scaling-stroke"/><g transform="translate(-360,-315) translate(34.5,14.5) matrix(1,0,0,1,0,0)"><g><g><path fill="none" stroke="#000000" stroke-dasharray="undefined" vector-effect="non-scaling-stroke" d="M 340 315 L 356.6666666666667 315 Q 366.6666666666667 315 376.6666666666667 315 L 383.3333333333333 315 Q 393.3333333333333 315 403.3333333333333 315 L 420 315" stroke-miterlimit="10"/></g></g></g></g></g><g data-width="190" data-height="410" data-layerId="uteZPLX7LhTE" transform="translate(0.5,0.5) matrix(1,0,0,1,420,9.999999999999972)"><g><g transform="translate(0,0) scale(1.9,4.1)"><g><path fill="rgb(255,255,255)" stroke="#000000" data-layerId="uteZPLX7LhTE" stroke-dasharray="1.7976931348623157e+308" vector-effect="non-scaling-stroke" d="M 0 0 L 100 0 Q 100 0 100 0 L 100 100 Q 100 100 100 100 L 0 100 Q 0 100 0 100 L 0 0 Q 0 0 0 0 Z" fill-opacity="0.008" stroke-miterlimit="10"/><g transform="scale(0.5263157894736842,0.24390243902439027)"/></g></g></g></g><g transform="matrix(1,0,0,1,431,20)"><g><g><rect fill="rgb(0,0,0)" stroke="none" x="0" y="0" width="168" height="390" fill-opacity="0"/></g></g><g><g><rect fill="rgb(0,0,0)" stroke="none" x="0" y="0" width="168" height="28" fill-opacity="0"/></g></g><g><g><rect fill="rgb(0,0,0)" stroke="none" x="12.34926986694336" y="0" width="144" height="28" fill-opacity="0"/></g></g><g><g><rect fill="rgb(0,0,0)" stroke="none" x="12.34926986694336" y="0" width="144" height="28" fill-opacity="0"/></g><text fill="rgb(0, 0, 0)" stroke="none" font-family="Arial" font-size="12px" font-style="normal" font-weight="bold" text-decoration="" line-height="14.000000953674316px" x="12.173913955688477" y="11" data-layerId="uteZPLX7LhTE">Физическое</text><text fill="rgb(0, 0, 0)" stroke="none" font-family="Arial" font-size="12px" font-style="normal" font-weight="bold" text-decoration="" line-height="14.000000953674316px" x="86.95652770996094" y="11" data-layerId="uteZPLX7LhTE">хранилище</text><text fill="rgb(0, 0, 0)" stroke="none" font-family="Arial" font-size="12px" font-style="normal" font-weight="bold" text-decoration="" line-height="14.000000953674316px" x="60.89037322998047" y="24.913043975830078" data-layerId="uteZPLX7LhTE">данных</text></g><g><g><rect fill="rgb(0,0,0)" stroke="none" x="0" y="27.826087951660156" width="168" height="14" fill-opacity="0"/></g></g><g><g><rect fill="rgb(0,0,0)" stroke="none" x="82.38494110107422" y="27.826087951660156" width="4" height="14" fill-opacity="0"/></g></g><g><g><rect fill="rgb(0,0,0)" stroke="none" x="82.38494110107422" y="27.826087951660156" width="4" height="14" fill-opacity="0"/></g></g><g><g><rect fill="rgb(0,0,0)" stroke="none" x="0" y="41.739131927490234" width="168" height="14" fill-opacity="0"/></g></g><g><g><rect fill="rgb(0,0,0)" stroke="none" x="82.38494110107422" y="41.739131927490234" width="4" height="14" fill-opacity="0"/></g></g><g><g><rect fill="rgb(0,0,0)" stroke="none" x="82.38494110107422" y="41.739131927490234" width="4" height="14" fill-opacity="0"/></g></g><g><g><rect fill="rgb(0,0,0)" stroke="none" x="0" y="55.65217590332031" width="168" height="14" fill-opacity="0"/></g></g><g><g><rect fill="rgb(0,0,0)" stroke="none" x="82.38494110107422" y="55.65217590332031" width="4" height="14" fill-opacity="0"/></g></g><g><g><rect fill="rgb(0,0,0)" stroke="none" x="82.38494110107422" y="55.65217590332031" width="4" height="14" fill-opacity="0"/></g></g><g><g><rect fill="rgb(0,0,0)" stroke="none" x="0" y="69.56521606445312" width="168" height="14" fill-opacity="0"/></g></g><g><g><rect fill="rgb(0,0,0)" stroke="none" x="82.38494110107422" y="69.56521606445312" width="4" height="14" fill-opacity="0"/></g></g><g><g><rect fill="rgb(0,0,0)" stroke="none" x="82.38494110107422" y="69.56521606445312" width="4" height="14" fill-opacity="0"/></g></g><g><g><rect fill="rgb(0,0,0)" stroke="none" x="0" y="83.47826385498047" width="168" height="14" fill-opacity="0"/></g></g><g><g><rect fill="rgb(0,0,0)" stroke="none" x="82.38494110107422" y="83.47826385498047" width="4" height="14" fill-opacity="0"/></g></g><g><g><rect fill="rgb(0,0,0)" stroke="none" x="82.38494110107422" y="83.47826385498047" width="4" height="14" fill-opacity="0"/></g></g><g><g><rect fill="rgb(0,0,0)" stroke="none" x="0" y="97.39131164550781" width="168" height="14" fill-opacity="0"/></g></g><g><g><rect fill="rgb(0,0,0)" stroke="none" x="82.38494110107422" y="97.39131164550781" width="4" height="14" fill-opacity="0"/></g></g><g><g><rect fill="rgb(0,0,0)" stroke="none" x="82.38494110107422" y="97.39131164550781" width="4" height="14" fill-opacity="0"/></g></g><g><g><rect fill="rgb(0,0,0)" stroke="none" x="0" y="111.30435180664062" width="168" height="14" fill-opacity="0"/></g></g><g><g><rect fill="rgb(0,0,0)" stroke="none" x="82.38494110107422" y="111.30435180664062" width="4" height="14" fill-opacity="0"/></g></g><g><g><rect fill="rgb(0,0,0)" stroke="none" x="82.38494110107422" y="111.30435180664062" width="4" height="14" fill-opacity="0"/></g></g><g><g><rect fill="rgb(0,0,0)" stroke="none" x="0" y="125.21739196777344" width="168" height="14" fill-opacity="0"/></g></g><g><g><rect fill="rgb(0,0,0)" stroke="none" x="82.38494110107422" y="125.21739196777344" width="4" height="14" fill-opacity="0"/></g></g><g><g><rect fill="rgb(0,0,0)" stroke="none" x="82.38494110107422" y="125.21739196777344" width="4" height="14" fill-opacity="0"/></g></g><g><g><rect fill="rgb(0,0,0)" stroke="none" x="0" y="139.13043212890625" width="168" height="14" fill-opacity="0"/></g></g><g><g><rect fill="rgb(0,0,0)" stroke="none" x="82.38494110107422" y="139.13043212890625" width="4" height="14" fill-opacity="0"/></g></g><g><g><rect fill="rgb(0,0,0)" stroke="none" x="82.38494110107422" y="139.13043212890625" width="4" height="14" fill-opacity="0"/></g></g><g><g><rect fill="rgb(0,0,0)" stroke="none" x="0" y="153.04348754882812" width="168" height="14" fill-opacity="0"/></g></g><g><g><rect fill="rgb(0,0,0)" stroke="none" x="82.38494110107422" y="153.04348754882812" width="4" height="14" fill-opacity="0"/></g></g><g><g><rect fill="rgb(0,0,0)" stroke="none" x="82.38494110107422" y="153.04348754882812" width="4" height="14" fill-opacity="0"/></g></g><g><g><rect fill="rgb(0,0,0)" stroke="none" x="0" y="166.95652770996094" width="168" height="14" fill-opacity="0"/></g></g><g><g><rect fill="rgb(0,0,0)" stroke="none" x="82.38494110107422" y="166.95652770996094" width="4" height="14" fill-opacity="0"/></g></g><g><g><rect fill="rgb(0,0,0)" stroke="none" x="82.38494110107422" y="166.95652770996094" width="4" height="14" fill-opacity="0"/></g></g><g><g><rect fill="rgb(0,0,0)" stroke="none" x="0" y="180.86956787109375" width="168" height="14" fill-opacity="0"/></g></g><g><g><rect fill="rgb(0,0,0)" stroke="none" x="82.38494110107422" y="180.86956787109375" width="4" height="14" fill-opacity="0"/></g></g><g><g><rect fill="rgb(0,0,0)" stroke="none" x="82.38494110107422" y="180.86956787109375" width="4" height="14" fill-opacity="0"/></g></g><g><g><rect fill="rgb(0,0,0)" stroke="none" x="0" y="194.78262329101562" width="168" height="14" fill-opacity="0"/></g></g><g><g><rect fill="rgb(0,0,0)" stroke="none" x="82.38494110107422" y="194.78262329101562" width="4" height="14" fill-opacity="0"/></g></g><g><g><rect fill="rgb(0,0,0)" stroke="none" x="82.38494110107422" y="194.78262329101562" width="4" height="14" fill-opacity="0"/></g></g><g><g><rect fill="rgb(0,0,0)" stroke="none" x="0" y="208.69566345214844" width="168" height="14" fill-opacity="0"/></g></g><g><g><rect fill="rgb(0,0,0)" stroke="none" x="82.38494110107422" y="208.69566345214844" width="4" height="14" fill-opacity="0"/></g></g><g><g><rect fill="rgb(0,0,0)" stroke="none" x="82.38494110107422" y="208.69566345214844" width="4" height="14" fill-opacity="0"/></g></g><g><g><rect fill="rgb(0,0,0)" stroke="none" x="0" y="222.60870361328125" width="168" height="14" fill-opacity="0"/></g></g><g><g><rect fill="rgb(0,0,0)" stroke="none" x="82.38494110107422" y="222.60870361328125" width="4" height="14" fill-opacity="0"/></g></g><g><g><rect fill="rgb(0,0,0)" stroke="none" x="82.38494110107422" y="222.60870361328125" width="4" height="14" fill-opacity="0"/></g></g><g><g><rect fill="rgb(0,0,0)" stroke="none" x="0" y="236.52174377441406" width="168" height="14" fill-opacity="0"/></g></g><g><g><rect fill="rgb(0,0,0)" stroke="none" x="82.38494110107422" y="236.52174377441406" width="4" height="14" fill-opacity="0"/></g></g><g><g><rect fill="rgb(0,0,0)" stroke="none" x="82.38494110107422" y="236.52174377441406" width="4" height="14" fill-opacity="0"/></g></g><g><g><rect fill="rgb(0,0,0)" stroke="none" x="0" y="250.43478393554688" width="168" height="14" fill-opacity="0"/></g></g><g><g><rect fill="rgb(0,0,0)" stroke="none" x="82.38494110107422" y="250.43478393554688" width="4" height="14" fill-opacity="0"/></g></g><g><g><rect fill="rgb(0,0,0)" stroke="none" x="82.38494110107422" y="250.43478393554688" width="4" height="14" fill-opacity="0"/></g></g><g><g><rect fill="rgb(0,0,0)" stroke="none" x="0" y="264.34783935546875" width="168" height="14" fill-opacity="0"/></g></g><g><g><rect fill="rgb(0,0,0)" stroke="none" x="82.38494110107422" y="264.34783935546875" width="4" height="14" fill-opacity="0"/></g></g><g><g><rect fill="rgb(0,0,0)" stroke="none" x="82.38494110107422" y="264.34783935546875" width="4" height="14" fill-opacity="0"/></g></g><g><g><rect fill="rgb(0,0,0)" stroke="none" x="0" y="278.2608642578125" width="168" height="14" fill-opacity="0"/></g></g><g><g><rect fill="rgb(0,0,0)" stroke="none" x="82.38494110107422" y="278.2608642578125" width="4" height="14" fill-opacity="0"/></g></g><g><g><rect fill="rgb(0,0,0)" stroke="none" x="82.38494110107422" y="278.2608642578125" width="4" height="14" fill-opacity="0"/></g></g><g><g><rect fill="rgb(0,0,0)" stroke="none" x="0" y="292.1739196777344" width="168" height="14" fill-opacity="0"/></g></g><g><g><rect fill="rgb(0,0,0)" stroke="none" x="82.38494110107422" y="292.1739196777344" width="4" height="14" fill-opacity="0"/></g></g><g><g><rect fill="rgb(0,0,0)" stroke="none" x="82.38494110107422" y="292.1739196777344" width="4" height="14" fill-opacity="0"/></g></g><g><g><rect fill="rgb(0,0,0)" stroke="none" x="0" y="306.08697509765625" width="168" height="14" fill-opacity="0"/></g></g><g><g><rect fill="rgb(0,0,0)" stroke="none" x="82.38494110107422" y="306.08697509765625" width="4" height="14" fill-opacity="0"/></g></g><g><g><rect fill="rgb(0,0,0)" stroke="none" x="82.38494110107422" y="306.08697509765625" width="4" height="14" fill-opacity="0"/></g></g><g><g><rect fill="rgb(0,0,0)" stroke="none" x="0" y="320" width="168" height="14" fill-opacity="0"/></g></g><g><g><rect fill="rgb(0,0,0)" stroke="none" x="82.38494110107422" y="320" width="4" height="14" fill-opacity="0"/></g></g><g><g><rect fill="rgb(0,0,0)" stroke="none" x="82.38494110107422" y="320" width="4" height="14" fill-opacity="0"/></g></g><g><g><rect fill="rgb(0,0,0)" stroke="none" x="0" y="333.9130554199219" width="168" height="14" fill-opacity="0"/></g></g><g><g><rect fill="rgb(0,0,0)" stroke="none" x="82.38494110107422" y="333.9130554199219" width="4" height="14" fill-opacity="0"/></g></g><g><g><rect fill="rgb(0,0,0)" stroke="none" x="82.38494110107422" y="333.9130554199219" width="4" height="14" fill-opacity="0"/></g></g><g><g><rect fill="rgb(0,0,0)" stroke="none" x="0" y="347.82611083984375" width="168" height="14" fill-opacity="0"/></g></g><g><g><rect fill="rgb(0,0,0)" stroke="none" x="82.38494110107422" y="347.82611083984375" width="4" height="14" fill-opacity="0"/></g></g><g><g><rect fill="rgb(0,0,0)" stroke="none" x="82.38494110107422" y="347.82611083984375" width="4" height="14" fill-opacity="0"/></g></g><g><g><rect fill="rgb(0,0,0)" stroke="none" x="0" y="361.7391357421875" width="168" height="14" fill-opacity="0"/></g></g><g><g><rect fill="rgb(0,0,0)" stroke="none" x="82.38494110107422" y="361.7391357421875" width="4" height="14" fill-opacity="0"/></g></g><g><g><rect fill="rgb(0,0,0)" stroke="none" x="82.38494110107422" y="361.7391357421875" width="4" height="14" fill-opacity="0"/></g></g><g><g><rect fill="rgb(0,0,0)" stroke="none" x="0" y="375.6521911621094" width="168" height="14" fill-opacity="0"/></g></g><g><g><rect fill="rgb(0,0,0)" stroke="none" x="82.38494110107422" y="375.6521911621094" width="4" height="14" fill-opacity="0"/></g></g><g><g><rect fill="rgb(0,0,0)" stroke="none" x="82.38494110107422" y="375.6521911621094" width="4" height="14" fill-opacity="0"/></g></g></g><g data-width="22.222222222222225" data-height="21.217391304347824" data-layerId="uteZPLX7LhTE" transform="translate(0,0) matrix(1,0,0,1,82.88888888888889,295)"><g><g transform="translate(0,0) scale(0.22222222222222224,0.21217391304347824)"><g><path fill="#FFFFFF" stroke="#333333" data-layerId="uteZPLX7LhTE" stroke-dasharray="1.7976931348623157e+308" vector-effect="non-scaling-stroke" d="M 100 50 A 50 50 0 1 0 99.99997500000208 50.04999999166668 Z" stroke-miterlimit="10" stroke-width="4"/><g transform="scale(4.5,4.713114754098361)"/></g></g></g></g><g data-width="30" data-height="30" data-layerId="uteZPLX7LhTE" transform="translate(0,0) matrix(6.123233995736766e-17,1,-1,6.123233995736766e-17,109,316.21739130434776)"><g><g transform="translate(0,0) scale(0.3,0.3)"><g transform="translate(50,0) translate(0,0) rotate(89.99998127603168,0,0) translate(0,0)"><g><path fill="rgb(0,0,0)" stroke="#333333" data-layerId="uteZPLX7LhTE" stroke-dasharray="1.7976931348623157e+308" vector-effect="non-scaling-stroke" d="M 0 0 C 4.713668e-15 38.49002 41.66667 62.54628 75 43.30127 C 90.47005 34.36963 100 17.86328 100 0" fill-opacity="0" stroke-miterlimit="10" stroke-width="4"/><g transform="scale(3.3333333333333335,3.3333333333333335)"/></g></g></g></g></g><g transform="matrix(1,0,0,1,2,338)"><g><g><rect fill="rgb(0,0,0)" stroke="none" x="0" y="0" width="184" height="56" fill-opacity="0"/></g></g><g><g><rect fill="rgb(0,0,0)" stroke="none" x="0" y="0" width="184" height="14" fill-opacity="0"/></g></g><g><g><rect fill="rgb(0,0,0)" stroke="none" x="66.35359954833984" y="0" width="52" height="14" fill-opacity="0"/></g><text fill="rgb(0, 0, 0)" stroke="none" font-family="Arial" font-size="12px" font-style="normal" font-weight="normal" text-decoration="" line-height="14.000000953674316px" x="66.35359954833984" y="11" data-layerId="uteZPLX7LhTE">Внешняя</text></g><g><g><rect fill="rgb(0,0,0)" stroke="none" x="117.6409683227539" y="0" width="1" height="14" fill-opacity="0"/></g></g><g><g><rect fill="rgb(0,0,0)" stroke="none" x="117.6409683227539" y="0" width="1" height="14" fill-opacity="0"/></g></g><g><g><rect fill="rgb(0,0,0)" stroke="none" x="0" y="13.913043975830078" width="184" height="14" fill-opacity="0"/></g></g><g><g><rect fill="rgb(0,0,0)" stroke="none" x="42.210853576660156" y="13.913043975830078" width="101" height="14" fill-opacity="0"/></g><text fill="rgb(0, 0, 0)" stroke="none" font-family="Arial" font-size="12px" font-style="normal" font-weight="normal" text-decoration="" line-height="14.000000953674316px" x="42.210853576660156" y="24.913043975830078" data-layerId="uteZPLX7LhTE">информационная</text></g><g><g><rect fill="rgb(0,0,0)" stroke="none" x="0" y="27.826087951660156" width="184" height="14" fill-opacity="0"/></g></g><g><g><rect fill="rgb(0,0,0)" stroke="none" x="68.83534240722656" y="27.826087951660156" width="47" height="14" fill-opacity="0"/></g><text fill="rgb(0, 0, 0)" stroke="none" font-family="Arial" font-size="12px" font-style="normal" font-weight="normal" text-decoration="" line-height="14.000000953674316px" x="68.83534240722656" y="38.826087951660156" data-layerId="uteZPLX7LhTE">система</text></g><g><g><rect fill="rgb(0,0,0)" stroke="none" x="0" y="41.739131927490234" width="184" height="14" fill-opacity="0"/></g></g><g><g><rect fill="rgb(0,0,0)" stroke="none" x="49.522335052490234" y="41.739131927490234" width="86" height="14" fill-opacity="0"/></g><text fill="rgb(0, 0, 0)" stroke="none" font-family="Arial" font-size="12px" font-style="normal" font-weight="normal" text-decoration="" line-height="14.000000953674316px" x="49.522335052490234" y="52.739131927490234" data-layerId="uteZPLX7LhTE">(пользователь)</text></g></g><g data-layerId="uteZPLX7LhTE" transform="matrix(1,0,0,1,115.38642227227379,300.5)"><g transform="translate(0,0)"><path fill="none" stroke="none" stroke-dasharray="undefined" vector-effect="non-scaling-stroke"/><g transform="translate(-370,-360) translate(254.6135777277262,59.5) matrix(1,0,0,1,0,0)"><g><g><path fill="none" stroke="#000000" stroke-dasharray="undefined" vector-effect="non-scaling-stroke" d="M 129.8864222722738 315 L 146.59094818151587 315 Q 156.59094818151587 315 166.59094818151587 315 L 173.29547409075792 315 Q 183.29547409075792 315 193.29547409075792 315 L 210 315" stroke-miterlimit="10"/></g></g></g></g></g></g></svg>