<svg version="1.1" xmlns="http://www.w3.org/2000/svg" xmlns:xlink="http://www.w3.org/1999/xlink" width="622" height="580"><style xmlns="http://www.w3.org/1999/xhtml"></style><defs/><g transform="translate(0,0)"><path fill="none" stroke="none" stroke-dasharray="undefined" vector-effect="non-scaling-stroke"/><g><rect fill="#FFFFFF" stroke="none" x="0" y="0" width="622" height="580"/></g><g data-width="580" data-height="17.6" data-layerId="ZbSflGdqC8B5" transform="translate(0.5,0.5) matrix(1,0,0,1,20,20)"><g><g transform="translate(0,0) scale(5.8,0.17600000000000002)"><g><path fill="#FFFFFF" stroke="#000000" stroke-dasharray="1.7976931348623157e+308" vector-effect="non-scaling-stroke" d="M 0 0 L 100 0 Q 100 0 100 0 L 100 100 Q 100 100 100 100 L 0 100 Q 0 100 0 100 L 0 0 Q 0 0 0 0 Z" stroke-miterlimit="10"/><g transform="scale(0.1724137931034483,5.681818181818182)"/></g></g></g></g><g transform="matrix(1,0,0,1,22,22)"><g><g><rect fill="rgb(0,0,0)" stroke="none" x="0" y="0" width="576" height="18" fill-opacity="0"/></g></g><g><g><rect fill="rgb(0,0,0)" stroke="none" x="0" y="0" width="576" height="14" fill-opacity="0"/></g></g><g><g><rect fill="rgb(0,0,0)" stroke="none" x="238.33750915527344" y="0" width="99" height="14" fill-opacity="0"/></g><text fill="rgb(0, 0, 0)" stroke="none" font-family="Arial" font-size="12px" font-style="normal" font-weight="normal" text-decoration="" line-height="14px" x="238.33750915527344" y="11" data-layerId="ZbSflGdqC8B5">Сообщение</text><text fill="rgb(0, 0, 0)" stroke="none" font-family="Arial" font-size="12px" font-style="normal" font-weight="normal" text-decoration="" line-height="14px" x="306.9624938964844" y="11" data-layerId="ZbSflGdqC8B5">Kafka</text></g></g><g data-width="580" data-height="522.4" data-layerId="ZbSflGdqC8B5" transform="translate(0.5,0.5) matrix(1,0,0,1,20,37.6)"><g><g transform="translate(0,0) scale(5.8,5.224)"><g><path fill="#FFFFFF" stroke="#000000" data-layerId="ZbSflGdqC8B5" stroke-dasharray="1.7976931348623157e+308" vector-effect="non-scaling-stroke" d="M 0 0 L 100 0 Q 100 0 100 0 L 100 100 Q 100 100 100 100 L 0 100 Q 0 100 0 100 L 0 0 Q 0 0 0 0 Z" stroke-miterlimit="10"/><g transform="scale(0.1724137931034483,0.1914241960183767)"/></g></g></g></g><g transform="matrix(1,0,0,1,22,40)"><g><g><rect fill="rgb(0,0,0)" stroke="none" x="0" y="0" width="576" height="18" fill-opacity="0"/></g></g><g><g><rect fill="rgb(0,0,0)" stroke="none" x="0" y="0" width="576" height="14" fill-opacity="0"/></g></g><g><g><rect fill="rgb(0,0,0)" stroke="none" x="286.32501220703125" y="0" width="3" height="14" fill-opacity="0"/></g></g></g><g data-width="540" data-height="17.6" data-layerId="ZbSflGdqC8B5" transform="translate(0.5,0.5) matrix(1,0,0,1,40,98.18695602416994)"><g><g transform="translate(0,0) scale(5.4,0.17600000000000002)"><g><path fill="#FFFFFF" stroke="#000000" data-layerId="ZbSflGdqC8B5" stroke-dasharray="1.7976931348623157e+308" vector-effect="non-scaling-stroke" d="M 0 0 L 100 0 Q 100 0 100 0 L 100 100 Q 100 100 100 100 L 0 100 Q 0 100 0 100 L 0 0 Q 0 0 0 0 Z" stroke-miterlimit="10"/><g transform="scale(0.18518518518518517,5.681818181818182)"/></g></g></g></g><g transform="matrix(1,0,0,1,42,100)"><g><g><rect fill="rgb(0,0,0)" stroke="none" x="0" y="0" width="536" height="18" fill-opacity="0"/></g></g><g><g><rect fill="rgb(0,0,0)" stroke="none" x="0" y="0" width="536" height="14" fill-opacity="0"/></g></g><g><g><rect fill="rgb(0,0,0)" stroke="none" x="254.625" y="0" width="27" height="14" fill-opacity="0"/></g><text fill="rgb(0, 0, 0)" stroke="none" font-family="Arial" font-size="12px" font-style="normal" font-weight="normal" text-decoration="" line-height="14px" x="254.625" y="11" data-layerId="ZbSflGdqC8B5">Тело</text></g></g><g data-width="540" data-height="422.4" data-layerId="ZbSflGdqC8B5" transform="translate(0.5,0.5) matrix(1,0,0,1,40,115.78695602416994)"><g><g transform="translate(0,0) scale(5.4,4.224)"><g><path fill="#FFFFFF" stroke="#000000" data-layerId="ZbSflGdqC8B5" stroke-dasharray="1.7976931348623157e+308" vector-effect="non-scaling-stroke" d="M 0 0 L 100 0 Q 100 0 100 0 L 100 100 Q 100 100 100 100 L 0 100 Q 0 100 0 100 L 0 0 Q 0 0 0 0 Z" stroke-miterlimit="10"/><g transform="scale(0.18518518518518517,0.23674242424242423)"/></g></g></g></g><g transform="matrix(1,0,0,1,42,118)"><g><g><rect fill="rgb(0,0,0)" stroke="none" x="0" y="0" width="536" height="18" fill-opacity="0"/></g></g><g><g><rect fill="rgb(0,0,0)" stroke="none" x="0" y="0" width="536" height="14" fill-opacity="0"/></g></g><g><g><rect fill="rgb(0,0,0)" stroke="none" x="266.32501220703125" y="0" width="3" height="14" fill-opacity="0"/></g></g></g><g data-width="460" data-height="17.6" data-layerId="ZbSflGdqC8B5" transform="translate(0.5,0.5) matrix(1,0,0,1,80,140)"><g><g transform="translate(0,0) scale(4.6,0.17600000000000002)"><g><path fill="#e2e2e2" stroke="#000000" data-layerId="ZbSflGdqC8B5" stroke-dasharray="1.7976931348623157e+308" vector-effect="non-scaling-stroke" d="M 0 0 L 100 0 Q 100 0 100 0 L 100 100 Q 100 100 100 100 L 0 100 Q 0 100 0 100 L 0 0 Q 0 0 0 0 Z" stroke-miterlimit="10"/><g transform="scale(0.2173913043478261,5.681818181818182)"/></g></g></g></g><g transform="matrix(1,0,0,1,82,142)"><g><g><rect fill="rgb(0,0,0)" stroke="none" x="0" y="0" width="456" height="18" fill-opacity="0"/></g></g><g><g><rect fill="rgb(0,0,0)" stroke="none" x="0" y="0" width="456" height="14" fill-opacity="0"/></g></g><g><g><rect fill="rgb(0,0,0)" stroke="none" x="180.3125" y="0" width="96" height="14" fill-opacity="0"/></g><text fill="rgb(0, 0, 0)" stroke="none" font-family="Arial" font-size="12px" font-style="normal" font-weight="normal" text-decoration="" line-height="14px" x="180.3125" y="11" data-layerId="ZbSflGdqC8B5">Avro</text><text fill="rgb(0, 0, 0)" stroke="none" font-family="Arial" font-size="12px" font-style="normal" font-weight="normal" text-decoration="" line-height="14px" x="204.7624969482422" y="11" data-layerId="ZbSflGdqC8B5">-файл</text><text fill="rgb(0, 0, 0)" stroke="none" font-family="Arial" font-size="12px" font-style="normal" font-weight="normal" text-decoration="" line-height="14px" x="242.35000610351562" y="11" data-layerId="ZbSflGdqC8B5">(</text><text fill="rgb(0, 0, 0)" stroke="none" font-family="Arial" font-size="12px" font-style="normal" font-weight="normal" text-decoration="" line-height="14px" x="246.33750915527344" y="11" data-layerId="ZbSflGdqC8B5">OCF</text><text fill="rgb(0, 0, 0)" stroke="none" font-family="Arial" font-size="12px" font-style="normal" font-weight="normal" text-decoration="" line-height="14px" x="271.6750183105469" y="11" data-layerId="ZbSflGdqC8B5">)</text></g></g><g data-width="460" data-height="352.4" data-layerId="ZbSflGdqC8B5" transform="translate(0.5,0.5) matrix(1,0,0,1,80,157.6)"><g><g transform="translate(0,0) scale(4.6,3.5239999999999996)"><g><path fill="#e2e2e2" stroke="#000000" data-layerId="ZbSflGdqC8B5" stroke-dasharray="1.7976931348623157e+308" vector-effect="non-scaling-stroke" d="M 0 0 L 100 0 Q 100 0 100 0 L 100 100 Q 100 100 100 100 L 0 100 Q 0 100 0 100 L 0 0 Q 0 0 0 0 Z" stroke-miterlimit="10"/><g transform="scale(0.2173913043478261,0.2837684449489217)"/></g></g></g></g><g transform="matrix(1,0,0,1,82,160)"><g><g><rect fill="rgb(0,0,0)" stroke="none" x="0" y="0" width="456" height="18" fill-opacity="0"/></g></g><g><g><rect fill="rgb(0,0,0)" stroke="none" x="0" y="0" width="456" height="14" fill-opacity="0"/></g></g><g><g><rect fill="rgb(0,0,0)" stroke="none" x="226.3249969482422" y="0" width="3" height="14" fill-opacity="0"/></g></g></g><g data-width="540" data-height="20" data-layerId="ZbSflGdqC8B5" transform="translate(0,0) matrix(1,0,0,1,40,60)"><g><g transform="translate(0,0) scale(5.4,0.2)"><g><path fill="#FFFFFF" stroke="#333333" data-layerId="ZbSflGdqC8B5" stroke-dasharray="1.7976931348623157e+308" vector-effect="non-scaling-stroke" d="M 0 0 L 100 0 Q 100 0 100 0 L 100 100 Q 100 100 100 100 L 0 100 Q 0 100 0 100 L 0 0 Q 0 0 0 0 Z" stroke-miterlimit="10" stroke-width="2"/><g transform="scale(0.18518518518518517,5)"/></g></g></g></g><g transform="matrix(1,0,0,1,42,63)"><g><g><rect fill="rgb(0,0,0)" stroke="none" x="0" y="0" width="535" height="14" fill-opacity="0"/></g></g><g><g><rect fill="rgb(0,0,0)" stroke="none" x="0" y="0" width="535" height="14" fill-opacity="0"/></g></g><g><g><rect fill="rgb(0,0,0)" stroke="none" x="253.0500030517578" y="0" width="30" height="14" fill-opacity="0"/></g></g><g><g><rect fill="rgb(0,0,0)" stroke="none" x="253.0500030517578" y="0" width="30" height="14" fill-opacity="0"/></g><text fill="rgb(0, 0, 0)" stroke="none" font-family="Arial" font-size="12px" font-style="normal" font-weight="normal" text-decoration="" line-height="14px" x="253.0500030517578" y="11" data-layerId="ZbSflGdqC8B5">Ключ</text></g></g><g data-width="382" data-height="17.6" data-layerId="ZbSflGdqC8B5" transform="translate(0.5,0.5) matrix(1,0,0,1,119,181)"><g><g transform="translate(0,0) scale(3.82,0.17600000000000002)"><g><path fill="#cccccc" stroke="#000000" data-layerId="ZbSflGdqC8B5" stroke-dasharray="1.7976931348623157e+308" vector-effect="non-scaling-stroke" d="M 0 0 L 100 0 Q 100 0 100 0 L 100 100 Q 100 100 100 100 L 0 100 Q 0 100 0 100 L 0 0 Q 0 0 0 0 Z" stroke-miterlimit="10"/><g transform="scale(0.2617801047120419,5.681818181818182)"/></g></g></g></g><g transform="matrix(1,0,0,1,121,183)"><g><g><rect fill="rgb(0,0,0)" stroke="none" x="0" y="0" width="378" height="18" fill-opacity="0"/></g></g><g><g><rect fill="rgb(0,0,0)" stroke="none" x="0" y="0" width="378" height="14" fill-opacity="0"/></g></g><g><g><rect fill="rgb(0,0,0)" stroke="none" x="113.5250015258789" y="0" width="151" height="14" fill-opacity="0"/></g><text fill="rgb(0, 0, 0)" stroke="none" font-family="Arial" font-size="12px" font-style="normal" font-weight="normal" text-decoration="" line-height="14px" x="113.5250015258789" y="11" data-layerId="ZbSflGdqC8B5">Заголовок</text><text fill="rgb(0, 0, 0)" stroke="none" font-family="Arial" font-size="12px" font-style="normal" font-weight="normal" text-decoration="" line-height="14px" x="173.27500915527344" y="11" data-layerId="ZbSflGdqC8B5">(включая</text><text fill="rgb(0, 0, 0)" stroke="none" font-family="Arial" font-size="12px" font-style="normal" font-weight="normal" text-decoration="" line-height="14px" x="227.52500915527344" y="11" data-layerId="ZbSflGdqC8B5">схему)</text></g></g><g data-width="382" data-height="141.39999999999998" data-layerId="ZbSflGdqC8B5" transform="translate(0.5,0.5) matrix(1,0,0,1,119,198.6)"><g><g transform="translate(0,0) scale(3.82,1.4139999999999997)"><g><path fill="#cccccc" stroke="#000000" data-layerId="ZbSflGdqC8B5" stroke-dasharray="1.7976931348623157e+308" vector-effect="non-scaling-stroke" d="M 0 0 L 100 0 Q 100 0 100 0 L 100 100 Q 100 100 100 100 L 0 100 Q 0 100 0 100 L 0 0 Q 0 0 0 0 Z" stroke-miterlimit="10"/><g transform="scale(0.2617801047120419,0.7072135785007073)"/></g></g></g></g><g transform="matrix(1,0,0,1,121,201)"><g><g><rect fill="rgb(0,0,0)" stroke="none" x="0" y="0" width="378" height="18" fill-opacity="0"/></g></g><g><g><rect fill="rgb(0,0,0)" stroke="none" x="0" y="0" width="378" height="14" fill-opacity="0"/></g></g><g><g><rect fill="rgb(0,0,0)" stroke="none" x="187.3249969482422" y="0" width="3" height="14" fill-opacity="0"/></g></g></g><g data-width="140" data-height="17.6" data-layerId="ZbSflGdqC8B5" transform="translate(0.5,0.5) matrix(1,0,0,1,240,210.1869560241699)"><g><g transform="translate(0,0) scale(1.4,0.17600000000000002)"><g><path fill="#b7b7b7" stroke="#000000" data-layerId="ZbSflGdqC8B5" stroke-dasharray="1.7976931348623157e+308" vector-effect="non-scaling-stroke" d="M 0 0 L 100 0 Q 100 0 100 0 L 100 100 Q 100 100 100 100 L 0 100 Q 0 100 0 100 L 0 0 Q 0 0 0 0 Z" stroke-miterlimit="10"/><g transform="scale(0.7142857142857143,5.681818181818182)"/></g></g></g></g><g transform="matrix(1,0,0,1,242,212)"><g><g><rect fill="rgb(0,0,0)" stroke="none" x="0" y="0" width="136" height="18" fill-opacity="0"/></g></g><g><g><rect fill="rgb(0,0,0)" stroke="none" x="0" y="0" width="136" height="14" fill-opacity="0"/></g></g><g><g><rect fill="rgb(0,0,0)" stroke="none" x="13.58750057220459" y="0" width="109" height="14" fill-opacity="0"/></g><text fill="rgb(0, 0, 0)" stroke="none" font-family="Arial" font-size="12px" font-style="normal" font-weight="normal" text-decoration="" line-height="14px" x="13.58750057220459" y="11" data-layerId="ZbSflGdqC8B5">Схема</text><text fill="rgb(0, 0, 0)" stroke="none" font-family="Arial" font-size="12px" font-style="normal" font-weight="normal" text-decoration="" line-height="14px" x="53.04999923706055" y="11" data-layerId="ZbSflGdqC8B5">данных</text><text fill="rgb(0, 0, 0)" stroke="none" font-family="Arial" font-size="12px" font-style="normal" font-weight="normal" text-decoration="" line-height="14px" x="97.9375" y="11" data-layerId="ZbSflGdqC8B5">Avro</text></g></g><g data-width="140" data-height="90.4" data-layerId="ZbSflGdqC8B5" transform="translate(0.5,0.5) matrix(1,0,0,1,240,227.78695602416988)"><g><g transform="translate(0,0) scale(1.4,0.904)"><g><path fill="#b7b7b7" stroke="#000000" data-layerId="ZbSflGdqC8B5" stroke-dasharray="1.7976931348623157e+308" vector-effect="non-scaling-stroke" d="M 0 0 L 100 0 Q 100 0 100 0 L 100 100 Q 100 100 100 100 L 0 100 Q 0 100 0 100 L 0 0 Q 0 0 0 0 Z" stroke-miterlimit="10"/><g transform="scale(0.7142857142857143,1.1061946902654867)"/></g></g></g></g><g transform="matrix(1,0,0,1,242,230)"><g><g><rect fill="rgb(0,0,0)" stroke="none" x="0" y="0" width="136" height="86" fill-opacity="0"/></g></g><g><g><rect fill="rgb(0,0,0)" stroke="none" x="0" y="0" width="136" height="27" fill-opacity="0"/></g></g><g><g><rect fill="rgb(0,0,0)" stroke="none" x="0" y="0" width="70" height="27" fill-opacity="0"/></g><text fill="rgb(0, 0, 0)" stroke="none" font-family="Arial" font-size="12px" font-style="normal" font-weight="normal" text-decoration="" line-height="14px" x="6.662499904632568" y="11" data-layerId="ZbSflGdqC8B5">name</text><text fill="rgb(0, 0, 0)" stroke="none" font-family="Arial" font-size="12px" font-style="normal" font-weight="normal" text-decoration="" line-height="14px" x="36.67499923706055" y="11" data-layerId="ZbSflGdqC8B5">:</text><text fill="rgb(0, 0, 0)" stroke="none" font-family="Arial" font-size="12px" font-style="normal" font-weight="normal" text-decoration="" line-height="14px" x="43.35000228881836" y="11" data-layerId="ZbSflGdqC8B5">...</text><text fill="rgb(0, 0, 0)" stroke="none" font-family="Arial" font-size="12px" font-style="normal" font-weight="normal" text-decoration="" line-height="14px" x="6.662499904632568" y="24.600000381469727" data-layerId="ZbSflGdqC8B5">type</text><text fill="rgb(0, 0, 0)" stroke="none" font-family="Arial" font-size="12px" font-style="normal" font-weight="normal" text-decoration="" line-height="14px" x="29.337499618530273" y="24.600000381469727" data-layerId="ZbSflGdqC8B5">:</text><text fill="rgb(0, 0, 0)" stroke="none" font-family="Arial" font-size="12px" font-style="normal" font-weight="normal" text-decoration="" line-height="14px" x="36.01250076293945" y="24.600000381469727" data-layerId="ZbSflGdqC8B5">record</text></g><g><g/></g><g><g><rect fill="rgb(0,0,0)" stroke="none" x="0" y="27.200000762939453" width="136" height="14" fill-opacity="0"/></g></g><g><g><rect fill="rgb(0,0,0)" stroke="none" x="0" y="27.200000762939453" width="94" height="14" fill-opacity="0"/></g><text fill="rgb(0, 0, 0)" stroke="none" font-family="Arial" font-size="12px" font-style="normal" font-weight="normal" text-decoration="" line-height="normal" x="6.662499904632568" y="38.20000076293945" data-layerId="ZbSflGdqC8B5">field1</text><text fill="rgb(0, 0, 0)" stroke="none" font-family="Arial" font-size="12px" font-style="normal" font-weight="normal" text-decoration="" line-height="normal" x="35.35000228881836" y="38.20000076293945" data-layerId="ZbSflGdqC8B5">:</text><text fill="rgb(0, 0, 0)" stroke="none" font-family="Arial" font-size="12px" font-style="normal" font-weight="normal" text-decoration="" line-height="normal" x="42.01250076293945" y="38.20000076293945" data-layerId="ZbSflGdqC8B5">datatype1</text></g><g><g><rect fill="rgb(0,0,0)" stroke="none" x="0" y="40.79999923706055" width="136" height="14" fill-opacity="0"/></g></g><g><g><rect fill="rgb(0,0,0)" stroke="none" x="0" y="40.79999923706055" width="94" height="14" fill-opacity="0"/></g><text fill="rgb(0, 0, 0)" stroke="none" font-family="Arial" font-size="12px" font-style="normal" font-weight="normal" text-decoration="" line-height="normal" x="6.662499904632568" y="51.79999923706055" data-layerId="ZbSflGdqC8B5">field2</text><text fill="rgb(0, 0, 0)" stroke="none" font-family="Arial" font-size="12px" font-style="normal" font-weight="normal" text-decoration="" line-height="normal" x="35.35000228881836" y="51.79999923706055" data-layerId="ZbSflGdqC8B5">:</text><text fill="rgb(0, 0, 0)" stroke="none" font-family="Arial" font-size="12px" font-style="normal" font-weight="normal" text-decoration="" line-height="normal" x="42.01250076293945" y="51.79999923706055" data-layerId="ZbSflGdqC8B5">datatype2</text></g><g><g><rect fill="rgb(0,0,0)" stroke="none" x="0" y="54.400001525878906" width="136" height="14" fill-opacity="0"/></g></g><g><g><rect fill="rgb(0,0,0)" stroke="none" x="0" y="54.400001525878906" width="17" height="14" fill-opacity="0"/></g><text fill="rgb(0, 0, 0)" stroke="none" font-family="Arial" font-size="12px" font-style="normal" font-weight="normal" text-decoration="" line-height="normal" x="6.662499904632568" y="65.4000015258789" data-layerId="ZbSflGdqC8B5">...</text></g><g><g><rect fill="rgb(0,0,0)" stroke="none" x="0" y="68" width="136" height="14" fill-opacity="0"/></g></g><g><g><rect fill="rgb(0,0,0)" stroke="none" x="0" y="68" width="64" height="14" fill-opacity="0"/></g><text fill="rgb(0, 0, 0)" stroke="none" font-family="Arial" font-size="12px" font-style="normal" font-weight="normal" text-decoration="" line-height="normal" x="6.662499904632568" y="79" data-layerId="ZbSflGdqC8B5">sys_op</text><text fill="rgb(0, 0, 0)" stroke="none" font-family="Arial" font-size="12px" font-style="normal" font-weight="normal" text-decoration="" line-height="normal" x="44.6875" y="79" data-layerId="ZbSflGdqC8B5">:</text><text fill="rgb(0, 0, 0)" stroke="none" font-family="Arial" font-size="12px" font-style="normal" font-weight="normal" text-decoration="" line-height="normal" x="51.35000228881836" y="79" data-layerId="ZbSflGdqC8B5">int</text></g></g><g data-width="382" data-height="17.6" data-layerId="ZbSflGdqC8B5" transform="translate(0.5,0.5) matrix(1,0,0,1,119,360)"><g><g transform="translate(0,0) scale(3.82,0.17600000000000002)"><g><path fill="#cccccc" stroke="#000000" data-layerId="ZbSflGdqC8B5" stroke-dasharray="1.7976931348623157e+308" vector-effect="non-scaling-stroke" d="M 0 0 L 100 0 Q 100 0 100 0 L 100 100 Q 100 100 100 100 L 0 100 Q 0 100 0 100 L 0 0 Q 0 0 0 0 Z" stroke-miterlimit="10"/><g transform="scale(0.2617801047120419,5.681818181818182)"/></g></g></g></g><g transform="matrix(1,0,0,1,121,362)"><g><g><rect fill="rgb(0,0,0)" stroke="none" x="0" y="0" width="378" height="18" fill-opacity="0"/></g></g><g><g><rect fill="rgb(0,0,0)" stroke="none" x="0" y="0" width="378" height="14" fill-opacity="0"/></g></g><g><g><rect fill="rgb(0,0,0)" stroke="none" x="149.8000030517578" y="0" width="78" height="14" fill-opacity="0"/></g><text fill="rgb(0, 0, 0)" stroke="none" font-family="Arial" font-size="12px" font-style="normal" font-weight="normal" text-decoration="" line-height="14px" x="149.8000030517578" y="11" data-layerId="ZbSflGdqC8B5">Блоки</text><text fill="rgb(0, 0, 0)" stroke="none" font-family="Arial" font-size="12px" font-style="normal" font-weight="normal" text-decoration="" line-height="14px" x="186.6374969482422" y="11" data-layerId="ZbSflGdqC8B5">данных</text></g></g><g data-width="382" data-height="112.4" data-layerId="ZbSflGdqC8B5" transform="translate(0.5,0.5) matrix(1,0,0,1,119,377.6)"><g><g transform="translate(0,0) scale(3.82,1.124)"><g><path fill="#cccccc" stroke="#000000" data-layerId="ZbSflGdqC8B5" stroke-dasharray="1.7976931348623157e+308" vector-effect="non-scaling-stroke" d="M 0 0 L 100 0 Q 100 0 100 0 L 100 100 Q 100 100 100 100 L 0 100 Q 0 100 0 100 L 0 0 Q 0 0 0 0 Z" stroke-miterlimit="10"/><g transform="scale(0.2617801047120419,0.889679715302491)"/></g></g></g></g><g transform="matrix(1,0,0,1,121,380)"><g><g><rect fill="rgb(0,0,0)" stroke="none" x="0" y="0" width="378" height="18" fill-opacity="0"/></g></g><g><g><rect fill="rgb(0,0,0)" stroke="none" x="0" y="0" width="378" height="14" fill-opacity="0"/></g></g><g><g><rect fill="rgb(0,0,0)" stroke="none" x="187.3249969482422" y="0" width="3" height="14" fill-opacity="0"/></g></g></g><g data-width="100" data-height="17.6" data-layerId="ZbSflGdqC8B5" transform="translate(0.5,0.5) matrix(1,0,0,1,140,391)"><g><g transform="translate(0,0) scale(1,0.17600000000000002)"><g><path fill="#b7b7b7" stroke="#000000" data-layerId="ZbSflGdqC8B5" stroke-dasharray="1.7976931348623157e+308" vector-effect="non-scaling-stroke" d="M 0 0 L 100 0 Q 100 0 100 0 L 100 100 Q 100 100 100 100 L 0 100 Q 0 100 0 100 L 0 0 Q 0 0 0 0 Z" stroke-miterlimit="10"/><g transform="scale(1,5.681818181818182)"/></g></g></g></g><g transform="matrix(1,0,0,1,142,393)"><g><g><rect fill="rgb(0,0,0)" stroke="none" x="0" y="0" width="96" height="18" fill-opacity="0"/></g></g><g><g><rect fill="rgb(0,0,0)" stroke="none" x="0" y="0" width="96" height="14" fill-opacity="0"/></g></g><g><g><rect fill="rgb(0,0,0)" stroke="none" x="14.412500381469727" y="0" width="67" height="14" fill-opacity="0"/></g><text fill="rgb(0, 0, 0)" stroke="none" font-family="Arial" font-size="12px" font-style="normal" font-weight="normal" text-decoration="" line-height="14px" x="14.412500381469727" y="11" data-layerId="ZbSflGdqC8B5">Запись</text><text fill="rgb(0, 0, 0)" stroke="none" font-family="Arial" font-size="12px" font-style="normal" font-weight="normal" text-decoration="" line-height="14px" x="57.11249923706055" y="11" data-layerId="ZbSflGdqC8B5">Avro</text></g></g><g data-width="100" data-height="62.086956024169915" data-layerId="ZbSflGdqC8B5" transform="translate(0.5,0.5) matrix(1,0,0,1,140,408.6)"><g><g transform="translate(0,0) scale(1,0.6208695602416991)"><g><path fill="#b7b7b7" stroke="#000000" data-layerId="ZbSflGdqC8B5" stroke-dasharray="1.7976931348623157e+308" vector-effect="non-scaling-stroke" d="M 0 0 L 100 0 Q 100 0 100 0 L 100 100 Q 100 100 100 100 L 0 100 Q 0 100 0 100 L 0 0 Q 0 0 0 0 Z" stroke-miterlimit="10"/><g transform="scale(1,1.6106442706108972)"/></g></g></g></g><g transform="matrix(1,0,0,1,142,411)"><g><g><rect fill="rgb(0,0,0)" stroke="none" x="0" y="0" width="96" height="58" fill-opacity="0"/></g></g><g><g><rect fill="rgb(0,0,0)" stroke="none" x="0" y="0" width="96" height="14" fill-opacity="0"/></g></g><g><g><rect fill="rgb(0,0,0)" stroke="none" x="0" y="0" width="6" height="14" fill-opacity="0"/></g></g><g><g><rect fill="rgb(0,0,0)" stroke="none" x="6.675000190734863" y="0" width="77" height="14" fill-opacity="0"/></g><text fill="rgb(0, 0, 0)" stroke="none" font-family="Arial" font-size="12px" font-style="normal" font-weight="normal" text-decoration="" line-height="normal" x="6.675000190734863" y="11" data-layerId="ZbSflGdqC8B5">field1</text><text fill="rgb(0, 0, 0)" stroke="none" font-family="Arial" font-size="12px" font-style="normal" font-weight="normal" text-decoration="" line-height="normal" x="35.36249923706055" y="11" data-layerId="ZbSflGdqC8B5">:</text><text fill="rgb(0, 0, 0)" stroke="none" font-family="Arial" font-size="12px" font-style="normal" font-weight="normal" text-decoration="" line-height="normal" x="42.025001525878906" y="11" data-layerId="ZbSflGdqC8B5">value11</text></g><g><g><rect fill="rgb(0,0,0)" stroke="none" x="0" y="13.600000381469727" width="96" height="14" fill-opacity="0"/></g></g><g><g><rect fill="rgb(0,0,0)" stroke="none" x="0" y="13.600000381469727" width="6" height="14" fill-opacity="0"/></g></g><g><g><rect fill="rgb(0,0,0)" stroke="none" x="6.675000190734863" y="13.600000381469727" width="78" height="14" fill-opacity="0"/></g><text fill="rgb(0, 0, 0)" stroke="none" font-family="Arial" font-size="12px" font-style="normal" font-weight="normal" text-decoration="" line-height="normal" x="6.675000190734863" y="24.600000381469727" data-layerId="ZbSflGdqC8B5">field2</text><text fill="rgb(0, 0, 0)" stroke="none" font-family="Arial" font-size="12px" font-style="normal" font-weight="normal" text-decoration="" line-height="normal" x="35.36249923706055" y="24.600000381469727" data-layerId="ZbSflGdqC8B5">:</text><text fill="rgb(0, 0, 0)" stroke="none" font-family="Arial" font-size="12px" font-style="normal" font-weight="normal" text-decoration="" line-height="normal" x="42.025001525878906" y="24.600000381469727" data-layerId="ZbSflGdqC8B5">value12</text></g><g><g><rect fill="rgb(0,0,0)" stroke="none" x="0" y="27.200000762939453" width="96" height="14" fill-opacity="0"/></g></g><g><g><rect fill="rgb(0,0,0)" stroke="none" x="0" y="27.200000762939453" width="6" height="14" fill-opacity="0"/></g></g><g><g><rect fill="rgb(0,0,0)" stroke="none" x="6.675000190734863" y="27.200000762939453" width="10" height="14" fill-opacity="0"/></g><text fill="rgb(0, 0, 0)" stroke="none" font-family="Arial" font-size="12px" font-style="normal" font-weight="normal" text-decoration="" line-height="normal" x="6.675000190734863" y="38.20000076293945" data-layerId="ZbSflGdqC8B5">...</text></g><g><g><rect fill="rgb(0,0,0)" stroke="none" x="16.6875" y="27.200000762939453" width="3" height="14" fill-opacity="0"/></g></g><g><g><rect fill="rgb(0,0,0)" stroke="none" x="0" y="40.79999923706055" width="96" height="14" fill-opacity="0"/></g></g><g><g><rect fill="rgb(0,0,0)" stroke="none" x="0" y="40.79999923706055" width="58" height="14" fill-opacity="0"/></g><text fill="rgb(0, 0, 0)" stroke="none" font-family="Arial" font-size="12px" font-style="normal" font-weight="normal" text-decoration="" line-height="normal" x="6.662499904632568" y="51.79999923706055" data-layerId="ZbSflGdqC8B5">sys_op</text><text fill="rgb(0, 0, 0)" stroke="none" font-family="Arial" font-size="12px" font-style="normal" font-weight="normal" text-decoration="" line-height="normal" x="44.6875" y="51.79999923706055" data-layerId="ZbSflGdqC8B5">:</text><text fill="rgb(0, 0, 0)" stroke="none" font-family="Arial" font-size="12px" font-style="normal" font-weight="normal" text-decoration="" line-height="normal" x="51.35000228881836" y="51.79999923706055" data-layerId="ZbSflGdqC8B5">0</text></g></g><g data-width="100" data-height="17.6" data-layerId="ZbSflGdqC8B5" transform="translate(0.5,0.5) matrix(1,0,0,1,260,391)"><g><g transform="translate(0,0) scale(1,0.17600000000000002)"><g><path fill="#b7b7b7" stroke="#000000" data-layerId="ZbSflGdqC8B5" stroke-dasharray="1.7976931348623157e+308" vector-effect="non-scaling-stroke" d="M 0 0 L 100 0 Q 100 0 100 0 L 100 100 Q 100 100 100 100 L 0 100 Q 0 100 0 100 L 0 0 Q 0 0 0 0 Z" stroke-miterlimit="10"/><g transform="scale(1,5.681818181818182)"/></g></g></g></g><g transform="matrix(1,0,0,1,262,393)"><g><g><rect fill="rgb(0,0,0)" stroke="none" x="0" y="0" width="96" height="18" fill-opacity="0"/></g></g><g><g><rect fill="rgb(0,0,0)" stroke="none" x="0" y="0" width="96" height="14" fill-opacity="0"/></g></g><g><g><rect fill="rgb(0,0,0)" stroke="none" x="14.412500381469727" y="0" width="67" height="14" fill-opacity="0"/></g><text fill="rgb(0, 0, 0)" stroke="none" font-family="Arial" font-size="12px" font-style="normal" font-weight="normal" text-decoration="" line-height="14px" x="14.412500381469727" y="11" data-layerId="ZbSflGdqC8B5">Запись</text><text fill="rgb(0, 0, 0)" stroke="none" font-family="Arial" font-size="12px" font-style="normal" font-weight="normal" text-decoration="" line-height="14px" x="57.11249923706055" y="11" data-layerId="ZbSflGdqC8B5">Avro</text></g></g><g data-width="100" data-height="62.086956024169915" data-layerId="ZbSflGdqC8B5" transform="translate(0.5,0.5) matrix(1,0,0,1,260,408.6)"><g><g transform="translate(0,0) scale(1,0.6208695602416991)"><g><path fill="#b7b7b7" stroke="#000000" data-layerId="ZbSflGdqC8B5" stroke-dasharray="1.7976931348623157e+308" vector-effect="non-scaling-stroke" d="M 0 0 L 100 0 Q 100 0 100 0 L 100 100 Q 100 100 100 100 L 0 100 Q 0 100 0 100 L 0 0 Q 0 0 0 0 Z" stroke-miterlimit="10"/><g transform="scale(1,1.6106442706108972)"/></g></g></g></g><g transform="matrix(1,0,0,1,262,411)"><g><g><rect fill="rgb(0,0,0)" stroke="none" x="0" y="0" width="96" height="58" fill-opacity="0"/></g></g><g><g><rect fill="rgb(0,0,0)" stroke="none" x="0" y="0" width="96" height="14" fill-opacity="0"/></g></g><g><g><rect fill="rgb(0,0,0)" stroke="none" x="0" y="0" width="84" height="14" fill-opacity="0"/></g><text fill="rgb(0, 0, 0)" stroke="none" font-family="Arial" font-size="12px" font-style="normal" font-weight="normal" text-decoration="" line-height="normal" x="6.662499904632568" y="11" data-layerId="ZbSflGdqC8B5">field1</text><text fill="rgb(0, 0, 0)" stroke="none" font-family="Arial" font-size="12px" font-style="normal" font-weight="normal" text-decoration="" line-height="normal" x="35.35000228881836" y="11" data-layerId="ZbSflGdqC8B5">:</text><text fill="rgb(0, 0, 0)" stroke="none" font-family="Arial" font-size="12px" font-style="normal" font-weight="normal" text-decoration="" line-height="normal" x="42.01250076293945" y="11" data-layerId="ZbSflGdqC8B5">value22</text></g><g><g><rect fill="rgb(0,0,0)" stroke="none" x="0" y="13.600000381469727" width="96" height="14" fill-opacity="0"/></g></g><g><g><rect fill="rgb(0,0,0)" stroke="none" x="0" y="13.600000381469727" width="6" height="14" fill-opacity="0"/></g></g><g><g><rect fill="rgb(0,0,0)" stroke="none" x="6.675000190734863" y="13.600000381469727" width="78" height="14" fill-opacity="0"/></g><text fill="rgb(0, 0, 0)" stroke="none" font-family="Arial" font-size="12px" font-style="normal" font-weight="normal" text-decoration="" line-height="normal" x="6.675000190734863" y="24.600000381469727" data-layerId="ZbSflGdqC8B5">field2</text><text fill="rgb(0, 0, 0)" stroke="none" font-family="Arial" font-size="12px" font-style="normal" font-weight="normal" text-decoration="" line-height="normal" x="35.36249923706055" y="24.600000381469727" data-layerId="ZbSflGdqC8B5">:</text><text fill="rgb(0, 0, 0)" stroke="none" font-family="Arial" font-size="12px" font-style="normal" font-weight="normal" text-decoration="" line-height="normal" x="42.025001525878906" y="24.600000381469727" data-layerId="ZbSflGdqC8B5">value22</text></g><g><g><rect fill="rgb(0,0,0)" stroke="none" x="0" y="27.200000762939453" width="96" height="14" fill-opacity="0"/></g></g><g><g><rect fill="rgb(0,0,0)" stroke="none" x="0" y="27.200000762939453" width="17" height="14" fill-opacity="0"/></g><text fill="rgb(0, 0, 0)" stroke="none" font-family="Arial" font-size="12px" font-style="normal" font-weight="normal" text-decoration="" line-height="normal" x="6.662499904632568" y="38.20000076293945" data-layerId="ZbSflGdqC8B5">...</text></g><g><g><rect fill="rgb(0,0,0)" stroke="none" x="0" y="40.79999923706055" width="96" height="14" fill-opacity="0"/></g></g><g><g><rect fill="rgb(0,0,0)" stroke="none" x="0" y="40.79999923706055" width="58" height="14" fill-opacity="0"/></g><text fill="rgb(0, 0, 0)" stroke="none" font-family="Arial" font-size="12px" font-style="normal" font-weight="normal" text-decoration="" line-height="normal" x="6.662499904632568" y="51.79999923706055" data-layerId="ZbSflGdqC8B5">sys_op</text><text fill="rgb(0, 0, 0)" stroke="none" font-family="Arial" font-size="12px" font-style="normal" font-weight="normal" text-decoration="" line-height="normal" x="44.6875" y="51.79999923706055" data-layerId="ZbSflGdqC8B5">:</text><text fill="rgb(0, 0, 0)" stroke="none" font-family="Arial" font-size="12px" font-style="normal" font-weight="normal" text-decoration="" line-height="normal" x="51.35000228881836" y="51.79999923706055" data-layerId="ZbSflGdqC8B5">1</text></g></g><g data-width="100" data-height="17.6" data-layerId="ZbSflGdqC8B5" transform="translate(0.5,0.5) matrix(1,0,0,1,380,391)"><g><g transform="translate(0,0) scale(1,0.17600000000000002)"><g><path fill="#b7b7b7" stroke="#000000" data-layerId="ZbSflGdqC8B5" stroke-dasharray="1.7976931348623157e+308" vector-effect="non-scaling-stroke" d="M 0 0 L 100 0 Q 100 0 100 0 L 100 100 Q 100 100 100 100 L 0 100 Q 0 100 0 100 L 0 0 Q 0 0 0 0 Z" stroke-miterlimit="10"/><g transform="scale(1,5.681818181818182)"/></g></g></g></g><g transform="matrix(1,0,0,1,382,393)"><g><g><rect fill="rgb(0,0,0)" stroke="none" x="0" y="0" width="96" height="18" fill-opacity="0"/></g></g><g><g><rect fill="rgb(0,0,0)" stroke="none" x="0" y="0" width="96" height="14" fill-opacity="0"/></g></g><g><g><rect fill="rgb(0,0,0)" stroke="none" x="14.412500381469727" y="0" width="67" height="14" fill-opacity="0"/></g><text fill="rgb(0, 0, 0)" stroke="none" font-family="Arial" font-size="12px" font-style="normal" font-weight="normal" text-decoration="" line-height="14px" x="14.412500381469727" y="11" data-layerId="ZbSflGdqC8B5">Запись</text><text fill="rgb(0, 0, 0)" stroke="none" font-family="Arial" font-size="12px" font-style="normal" font-weight="normal" text-decoration="" line-height="14px" x="57.11249923706055" y="11" data-layerId="ZbSflGdqC8B5">Avro</text></g></g><g data-width="100" data-height="62.086956024169915" data-layerId="ZbSflGdqC8B5" transform="translate(0.5,0.5) matrix(1,0,0,1,380,408.6)"><g><g transform="translate(0,0) scale(1,0.6208695602416991)"><g><path fill="#b7b7b7" stroke="#000000" data-layerId="ZbSflGdqC8B5" stroke-dasharray="1.7976931348623157e+308" vector-effect="non-scaling-stroke" d="M 0 0 L 100 0 Q 100 0 100 0 L 100 100 Q 100 100 100 100 L 0 100 Q 0 100 0 100 L 0 0 Q 0 0 0 0 Z" stroke-miterlimit="10"/><g transform="scale(1,1.6106442706108972)"/></g></g></g></g><g transform="matrix(1,0,0,1,382,411)"><g><g><rect fill="rgb(0,0,0)" stroke="none" x="0" y="0" width="96" height="58" fill-opacity="0"/></g></g><g><g><rect fill="rgb(0,0,0)" stroke="none" x="0" y="0" width="96" height="14" fill-opacity="0"/></g></g><g><g><rect fill="rgb(0,0,0)" stroke="none" x="0" y="0" width="84" height="14" fill-opacity="0"/></g><text fill="rgb(0, 0, 0)" stroke="none" font-family="Arial" font-size="12px" font-style="normal" font-weight="normal" text-decoration="" line-height="normal" x="6.662499904632568" y="11" data-layerId="ZbSflGdqC8B5">field1</text><text fill="rgb(0, 0, 0)" stroke="none" font-family="Arial" font-size="12px" font-style="normal" font-weight="normal" text-decoration="" line-height="normal" x="35.35000228881836" y="11" data-layerId="ZbSflGdqC8B5">:</text><text fill="rgb(0, 0, 0)" stroke="none" font-family="Arial" font-size="12px" font-style="normal" font-weight="normal" text-decoration="" line-height="normal" x="42.01250076293945" y="11" data-layerId="ZbSflGdqC8B5">value33</text></g><g><g><rect fill="rgb(0,0,0)" stroke="none" x="0" y="13.600000381469727" width="96" height="14" fill-opacity="0"/></g></g><g><g><rect fill="rgb(0,0,0)" stroke="none" x="0" y="13.600000381469727" width="6" height="14" fill-opacity="0"/></g></g><g><g><rect fill="rgb(0,0,0)" stroke="none" x="6.675000190734863" y="13.600000381469727" width="78" height="14" fill-opacity="0"/></g><text fill="rgb(0, 0, 0)" stroke="none" font-family="Arial" font-size="12px" font-style="normal" font-weight="normal" text-decoration="" line-height="normal" x="6.675000190734863" y="24.600000381469727" data-layerId="ZbSflGdqC8B5">field2</text><text fill="rgb(0, 0, 0)" stroke="none" font-family="Arial" font-size="12px" font-style="normal" font-weight="normal" text-decoration="" line-height="normal" x="35.36249923706055" y="24.600000381469727" data-layerId="ZbSflGdqC8B5">:</text><text fill="rgb(0, 0, 0)" stroke="none" font-family="Arial" font-size="12px" font-style="normal" font-weight="normal" text-decoration="" line-height="normal" x="42.025001525878906" y="24.600000381469727" data-layerId="ZbSflGdqC8B5">value33</text></g><g><g><rect fill="rgb(0,0,0)" stroke="none" x="0" y="27.200000762939453" width="96" height="14" fill-opacity="0"/></g></g><g><g><rect fill="rgb(0,0,0)" stroke="none" x="0" y="27.200000762939453" width="17" height="14" fill-opacity="0"/></g><text fill="rgb(0, 0, 0)" stroke="none" font-family="Arial" font-size="12px" font-style="normal" font-weight="normal" text-decoration="" line-height="normal" x="6.662499904632568" y="38.20000076293945" data-layerId="ZbSflGdqC8B5">...</text></g><g><g><rect fill="rgb(0,0,0)" stroke="none" x="0" y="40.79999923706055" width="96" height="14" fill-opacity="0"/></g></g><g><g><rect fill="rgb(0,0,0)" stroke="none" x="0" y="40.79999923706055" width="58" height="14" fill-opacity="0"/></g><text fill="rgb(0, 0, 0)" stroke="none" font-family="Arial" font-size="12px" font-style="normal" font-weight="normal" text-decoration="" line-height="normal" x="6.662499904632568" y="51.79999923706055" data-layerId="ZbSflGdqC8B5">sys_op</text><text fill="rgb(0, 0, 0)" stroke="none" font-family="Arial" font-size="12px" font-style="normal" font-weight="normal" text-decoration="" line-height="normal" x="44.6875" y="51.79999923706055" data-layerId="ZbSflGdqC8B5">:</text><text fill="rgb(0, 0, 0)" stroke="none" font-family="Arial" font-size="12px" font-style="normal" font-weight="normal" text-decoration="" line-height="normal" x="51.35000228881836" y="51.79999923706055" data-layerId="ZbSflGdqC8B5">2</text></g></g></g></svg>