<svg version="1.1" xmlns="http://www.w3.org/2000/svg" xmlns:xlink="http://www.w3.org/1999/xlink" width="759.9999999999999" height="300"><style xmlns="http://www.w3.org/1999/xhtml"></style><defs/><g transform="translate(0,0)"><path fill="none" stroke="none" stroke-dasharray="undefined" vector-effect="non-scaling-stroke"/><g><rect fill="#FFFFFF" stroke="none" x="0" y="0" width="759.9999999999999" height="300"/></g><g data-width="719.9999999999999" data-height="260" data-layerId="ZbSflGdqC8B5" transform="translate(0.5,0.5) matrix(1,0,0,1,20,20)"><g><g transform="translate(0,0) scale(7.199999999999999,2.6)"><g><path fill="#FFFFFF" stroke="#333333" stroke-dasharray="1.7976931348623157e+308" vector-effect="non-scaling-stroke" d="M 0 0 L 100 0 Q 100 0 100 0 L 100 100 Q 100 100 100 100 L 0 100 Q 0 100 0 100 L 0 0 Q 0 0 0 0 Z" stroke-miterlimit="10"/><g transform="scale(0.1388888888888889,0.3846153846153846)"/></g></g></g></g><g transform="matrix(1,0,0,1,22,28)"><g><g><rect fill="rgb(0,0,0)" stroke="none" x="0" y="0" width="715" height="14" fill-opacity="0"/></g></g><g><g><rect fill="rgb(0,0,0)" stroke="none" x="0" y="0" width="715" height="14" fill-opacity="0"/></g></g><g><g><rect fill="rgb(0,0,0)" stroke="none" x="307.8500061035156" y="0" width="99" height="14" fill-opacity="0"/></g></g><g><g><rect fill="rgb(0,0,0)" stroke="none" x="307.8500061035156" y="0" width="99" height="14" fill-opacity="0"/></g><text fill="rgb(0, 0, 0)" stroke="none" font-family="Arial" font-size="12px" font-style="normal" font-weight="normal" text-decoration="" line-height="14px" x="307.8500061035156" y="11" data-layerId="ZbSflGdqC8B5">Сообщение</text><text fill="rgb(0, 0, 0)" stroke="none" font-family="Arial" font-size="12px" font-style="normal" font-weight="normal" text-decoration="" line-height="14px" x="376.4750061035156" y="11" data-layerId="ZbSflGdqC8B5">Kafka</text></g></g><g data-width="44" data-height="200" data-layerId="ZbSflGdqC8B5" transform="translate(0.5,0.5) matrix(1,0,0,1,40,60)"><g><g transform="translate(0,0) scale(0.44,2)"><g><path fill="#FFFFFF" stroke="#333333" data-layerId="ZbSflGdqC8B5" stroke-dasharray="1.7976931348623157e+308" vector-effect="non-scaling-stroke" d="M 0 0 L 100 0 Q 100 0 100 0 L 100 100 Q 100 100 100 100 L 0 100 Q 0 100 0 100 L 0 0 Q 0 0 0 0 Z" stroke-miterlimit="10"/><g transform="scale(2.272727272727273,0.5)"/></g></g></g></g><g transform="matrix(1,0,0,1,40,68)"><g><g><rect fill="rgb(0,0,0)" stroke="none" x="0" y="0" width="44" height="14" fill-opacity="0"/></g></g><g><g><rect fill="rgb(0,0,0)" stroke="none" x="0" y="0" width="44" height="14" fill-opacity="0"/></g></g><g><g><rect fill="rgb(0,0,0)" stroke="none" x="7.349999904632568" y="0" width="29" height="14" fill-opacity="0"/></g></g><g><g><rect fill="rgb(0,0,0)" stroke="none" x="7.349999904632568" y="0" width="29" height="14" fill-opacity="0"/></g><text fill="rgb(0, 0, 0)" stroke="none" font-family="Arial" font-size="12px" font-style="normal" font-weight="normal" text-decoration="" line-height="14px" x="7.349999904632568" y="11" data-layerId="ZbSflGdqC8B5">Ключ</text></g></g><g data-width="620" data-height="200" data-layerId="ZbSflGdqC8B5" transform="translate(0.5,0.5) matrix(1,0,0,1,100,60)"><g><g transform="translate(0,0) scale(6.2,2)"><g><path fill="#FFFFFF" stroke="#333333" data-layerId="ZbSflGdqC8B5" stroke-dasharray="1.7976931348623157e+308" vector-effect="non-scaling-stroke" d="M 0 0 L 100 0 Q 100 0 100 0 L 100 100 Q 100 100 100 100 L 0 100 Q 0 100 0 100 L 0 0 Q 0 0 0 0 Z" stroke-miterlimit="10"/><g transform="scale(0.16129032258064516,0.5)"/></g></g></g></g><g transform="matrix(1,0,0,1,102,68)"><g><g><rect fill="rgb(0,0,0)" stroke="none" x="0" y="0" width="616" height="14" fill-opacity="0"/></g></g><g><g><rect fill="rgb(0,0,0)" stroke="none" x="0" y="0" width="616" height="14" fill-opacity="0"/></g></g><g><g><rect fill="rgb(0,0,0)" stroke="none" x="232.46250915527344" y="0" width="150" height="14" fill-opacity="0"/></g></g><g><g><rect fill="rgb(0,0,0)" stroke="none" x="232.46250915527344" y="0" width="150" height="14" fill-opacity="0"/></g><text fill="rgb(0, 0, 0)" stroke="none" font-family="Arial" font-size="12px" font-style="normal" font-weight="normal" text-decoration="" line-height="14px" x="232.46250915527344" y="11" data-layerId="ZbSflGdqC8B5">Тело</text><text fill="rgb(0, 0, 0)" stroke="none" font-family="Arial" font-size="12px" font-style="normal" font-weight="normal" text-decoration="" line-height="14px" x="262.5375061035156" y="11" data-layerId="ZbSflGdqC8B5">(</text><text fill="rgb(0, 0, 0)" stroke="none" font-family="Arial" font-size="12px" font-style="normal" font-weight="normal" text-decoration="" line-height="14px" x="266.5249938964844" y="11" data-layerId="ZbSflGdqC8B5">Object</text><text fill="rgb(0, 0, 0)" stroke="none" font-family="Arial" font-size="12px" font-style="normal" font-weight="normal" text-decoration="" line-height="14px" x="304.5500183105469" y="11" data-layerId="ZbSflGdqC8B5">Container</text><text fill="rgb(0, 0, 0)" stroke="none" font-family="Arial" font-size="12px" font-style="normal" font-weight="normal" text-decoration="" line-height="14px" x="359.9125061035156" y="11" data-layerId="ZbSflGdqC8B5">File</text><text fill="rgb(0, 0, 0)" stroke="none" font-family="Arial" font-size="12px" font-style="normal" font-weight="normal" text-decoration="" line-height="14px" x="379.25" y="11" data-layerId="ZbSflGdqC8B5">)</text></g></g><g data-width="180" data-height="142" data-layerId="ZbSflGdqC8B5" transform="translate(0.5,0.5) matrix(1,0,0,1,120,100)"><g><g transform="translate(0,0) scale(1.8,1.42)"><g><path fill="#FFFFFF" stroke="#333333" data-layerId="ZbSflGdqC8B5" stroke-dasharray="8,8" vector-effect="non-scaling-stroke" d="M 0 0 L 100 0 Q 100 0 100 0 L 100 100 Q 100 100 100 100 L 0 100 Q 0 100 0 100 L 0 0 Q 0 0 0 0 Z" stroke-miterlimit="10"/><g transform="scale(0.5555555555555556,0.7042253521126761)"/></g></g></g></g><g transform="matrix(1,0,0,1,121,108)"><g><g><rect fill="rgb(0,0,0)" stroke="none" x="0" y="0" width="178" height="14" fill-opacity="0"/></g></g><g><g><rect fill="rgb(0,0,0)" stroke="none" x="0" y="0" width="178" height="14" fill-opacity="0"/></g></g><g><g><rect fill="rgb(0,0,0)" stroke="none" x="61.16250228881836" y="0" width="57" height="14" fill-opacity="0"/></g></g><g><g><rect fill="rgb(0,0,0)" stroke="none" x="61.16250228881836" y="0" width="57" height="14" fill-opacity="0"/></g><text fill="rgb(0, 0, 0)" stroke="none" font-family="Arial" font-size="12px" font-style="normal" font-weight="normal" text-decoration="" line-height="14px" x="61.16250228881836" y="11" data-layerId="ZbSflGdqC8B5">Заголовок</text></g></g><g data-width="140" data-height="17.6" data-layerId="ZbSflGdqC8B5" transform="translate(0.5,0.5) matrix(1,0,0,1,140,140)"><g><g transform="translate(0,0) scale(1.4,0.17600000000000002)"><g><path fill="#e2e2e2" stroke="#000000" data-layerId="ZbSflGdqC8B5" stroke-dasharray="1.7976931348623157e+308" vector-effect="non-scaling-stroke" d="M 0 0 L 100 0 Q 100 0 100 0 L 100 100 Q 100 100 100 100 L 0 100 Q 0 100 0 100 L 0 0 Q 0 0 0 0 Z" stroke-miterlimit="10"/><g transform="scale(0.7142857142857143,5.681818181818182)"/></g></g></g></g><g transform="matrix(1,0,0,1,142,142)"><g><g><rect fill="rgb(0,0,0)" stroke="none" x="0" y="0" width="136" height="18" fill-opacity="0"/></g></g><g><g><rect fill="rgb(0,0,0)" stroke="none" x="0" y="0" width="136" height="14" fill-opacity="0"/></g></g><g><g><rect fill="rgb(0,0,0)" stroke="none" x="13.58750057220459" y="0" width="109" height="14" fill-opacity="0"/></g><text fill="rgb(0, 0, 0)" stroke="none" font-family="Arial" font-size="12px" font-style="normal" font-weight="normal" text-decoration="" line-height="14px" x="13.58750057220459" y="11" data-layerId="ZbSflGdqC8B5">Схема</text><text fill="rgb(0, 0, 0)" stroke="none" font-family="Arial" font-size="12px" font-style="normal" font-weight="normal" text-decoration="" line-height="14px" x="53.04999923706055" y="11" data-layerId="ZbSflGdqC8B5">данных</text><text fill="rgb(0, 0, 0)" stroke="none" font-family="Arial" font-size="12px" font-style="normal" font-weight="normal" text-decoration="" line-height="14px" x="97.9375" y="11" data-layerId="ZbSflGdqC8B5">Avro</text></g></g><g data-width="140" data-height="72" data-layerId="ZbSflGdqC8B5" transform="translate(0.5,0.5) matrix(1,0,0,1,140,157.6)"><g><g transform="translate(0,0) scale(1.4,0.72)"><g><path fill="#e2e2e2" stroke="#000000" data-layerId="ZbSflGdqC8B5" stroke-dasharray="1.7976931348623157e+308" vector-effect="non-scaling-stroke" d="M 0 0 L 100 0 Q 100 0 100 0 L 100 100 Q 100 100 100 100 L 0 100 Q 0 100 0 100 L 0 0 Q 0 0 0 0 Z" stroke-miterlimit="10"/><g transform="scale(0.7142857142857143,1.3888888888888888)"/></g></g></g></g><g transform="matrix(1,0,0,1,142,160)"><g><g><rect fill="rgb(0,0,0)" stroke="none" x="0" y="0" width="136" height="72" fill-opacity="0"/></g></g><g><g><rect fill="rgb(0,0,0)" stroke="none" x="0" y="0" width="136" height="27" fill-opacity="0"/></g></g><g><g><rect fill="rgb(0,0,0)" stroke="none" x="0" y="0" width="70" height="27" fill-opacity="0"/></g><text fill="rgb(0, 0, 0)" stroke="none" font-family="Arial" font-size="12px" font-style="normal" font-weight="normal" text-decoration="" line-height="14px" x="6.662499904632568" y="11" data-layerId="ZbSflGdqC8B5">name</text><text fill="rgb(0, 0, 0)" stroke="none" font-family="Arial" font-size="12px" font-style="normal" font-weight="normal" text-decoration="" line-height="14px" x="36.67499923706055" y="11" data-layerId="ZbSflGdqC8B5">:</text><text fill="rgb(0, 0, 0)" stroke="none" font-family="Arial" font-size="12px" font-style="normal" font-weight="normal" text-decoration="" line-height="14px" x="43.35000228881836" y="11" data-layerId="ZbSflGdqC8B5">...</text><text fill="rgb(0, 0, 0)" stroke="none" font-family="Arial" font-size="12px" font-style="normal" font-weight="normal" text-decoration="" line-height="14px" x="6.662499904632568" y="24.600000381469727" data-layerId="ZbSflGdqC8B5">type</text><text fill="rgb(0, 0, 0)" stroke="none" font-family="Arial" font-size="12px" font-style="normal" font-weight="normal" text-decoration="" line-height="14px" x="29.337499618530273" y="24.600000381469727" data-layerId="ZbSflGdqC8B5">:</text><text fill="rgb(0, 0, 0)" stroke="none" font-family="Arial" font-size="12px" font-style="normal" font-weight="normal" text-decoration="" line-height="14px" x="36.01250076293945" y="24.600000381469727" data-layerId="ZbSflGdqC8B5">record</text></g><g><g/></g><g><g><rect fill="rgb(0,0,0)" stroke="none" x="0" y="27.200000762939453" width="136" height="14" fill-opacity="0"/></g></g><g><g><rect fill="rgb(0,0,0)" stroke="none" x="0" y="27.200000762939453" width="94" height="14" fill-opacity="0"/></g><text fill="rgb(0, 0, 0)" stroke="none" font-family="Arial" font-size="12px" font-style="normal" font-weight="normal" text-decoration="" line-height="normal" x="6.662499904632568" y="38.20000076293945" data-layerId="ZbSflGdqC8B5">field1</text><text fill="rgb(0, 0, 0)" stroke="none" font-family="Arial" font-size="12px" font-style="normal" font-weight="normal" text-decoration="" line-height="normal" x="35.35000228881836" y="38.20000076293945" data-layerId="ZbSflGdqC8B5">:</text><text fill="rgb(0, 0, 0)" stroke="none" font-family="Arial" font-size="12px" font-style="normal" font-weight="normal" text-decoration="" line-height="normal" x="42.01250076293945" y="38.20000076293945" data-layerId="ZbSflGdqC8B5">datatype1</text></g><g><g><rect fill="rgb(0,0,0)" stroke="none" x="0" y="40.79999923706055" width="136" height="14" fill-opacity="0"/></g></g><g><g><rect fill="rgb(0,0,0)" stroke="none" x="0" y="40.79999923706055" width="94" height="14" fill-opacity="0"/></g><text fill="rgb(0, 0, 0)" stroke="none" font-family="Arial" font-size="12px" font-style="normal" font-weight="normal" text-decoration="" line-height="normal" x="6.662499904632568" y="51.79999923706055" data-layerId="ZbSflGdqC8B5">field2</text><text fill="rgb(0, 0, 0)" stroke="none" font-family="Arial" font-size="12px" font-style="normal" font-weight="normal" text-decoration="" line-height="normal" x="35.35000228881836" y="51.79999923706055" data-layerId="ZbSflGdqC8B5">:</text><text fill="rgb(0, 0, 0)" stroke="none" font-family="Arial" font-size="12px" font-style="normal" font-weight="normal" text-decoration="" line-height="normal" x="42.01250076293945" y="51.79999923706055" data-layerId="ZbSflGdqC8B5">datatype2</text></g><g><g><rect fill="rgb(0,0,0)" stroke="none" x="0" y="54.400001525878906" width="136" height="14" fill-opacity="0"/></g></g><g><g><rect fill="rgb(0,0,0)" stroke="none" x="0" y="54.400001525878906" width="17" height="14" fill-opacity="0"/></g><text fill="rgb(0, 0, 0)" stroke="none" font-family="Arial" font-size="12px" font-style="normal" font-weight="normal" text-decoration="" line-height="normal" x="6.662499904632568" y="65.4000015258789" data-layerId="ZbSflGdqC8B5">...</text></g></g><g data-width="378" data-height="142" data-layerId="ZbSflGdqC8B5" transform="translate(0.5,0.5) matrix(1,0,0,1,321,100)"><g><g transform="translate(0,0) scale(3.78,1.42)"><g><path fill="#FFFFFF" stroke="#333333" data-layerId="ZbSflGdqC8B5" stroke-dasharray="8,8" vector-effect="non-scaling-stroke" d="M 0 0 L 100 0 Q 100 0 100 0 L 100 100 Q 100 100 100 100 L 0 100 Q 0 100 0 100 L 0 0 Q 0 0 0 0 Z" stroke-miterlimit="10"/><g transform="scale(0.2645502645502646,0.7042253521126761)"/></g></g></g></g><g transform="matrix(1,0,0,1,322,108)"><g><g><rect fill="rgb(0,0,0)" stroke="none" x="0" y="0" width="375" height="14" fill-opacity="0"/></g></g><g><g><rect fill="rgb(0,0,0)" stroke="none" x="0" y="0" width="375" height="14" fill-opacity="0"/></g></g><g><g><rect fill="rgb(0,0,0)" stroke="none" x="148.4875030517578" y="0" width="78" height="14" fill-opacity="0"/></g></g><g><g><rect fill="rgb(0,0,0)" stroke="none" x="148.4875030517578" y="0" width="78" height="14" fill-opacity="0"/></g><text fill="rgb(0, 0, 0)" stroke="none" font-family="Arial" font-size="12px" font-style="normal" font-weight="normal" text-decoration="" line-height="14px" x="148.4875030517578" y="11" data-layerId="ZbSflGdqC8B5">Блоки</text><text fill="rgb(0, 0, 0)" stroke="none" font-family="Arial" font-size="12px" font-style="normal" font-weight="normal" text-decoration="" line-height="14px" x="185.3249969482422" y="11" data-layerId="ZbSflGdqC8B5">данных</text></g></g><g data-width="100" data-height="17.6" data-layerId="ZbSflGdqC8B5" transform="translate(0.5,0.5) matrix(1,0,0,1,340,140)"><g><g transform="translate(0,0) scale(1,0.17600000000000002)"><g><path fill="#b7b7b7" stroke="#000000" data-layerId="ZbSflGdqC8B5" stroke-dasharray="1.7976931348623157e+308" vector-effect="non-scaling-stroke" d="M 0 0 L 100 0 Q 100 0 100 0 L 100 100 Q 100 100 100 100 L 0 100 Q 0 100 0 100 L 0 0 Q 0 0 0 0 Z" stroke-miterlimit="10"/><g transform="scale(1,5.681818181818182)"/></g></g></g></g><g transform="matrix(1,0,0,1,342,142)"><g><g><rect fill="rgb(0,0,0)" stroke="none" x="0" y="0" width="96" height="18" fill-opacity="0"/></g></g><g><g><rect fill="rgb(0,0,0)" stroke="none" x="0" y="0" width="96" height="14" fill-opacity="0"/></g></g><g><g><rect fill="rgb(0,0,0)" stroke="none" x="14.412500381469727" y="0" width="67" height="14" fill-opacity="0"/></g><text fill="rgb(0, 0, 0)" stroke="none" font-family="Arial" font-size="12px" font-style="normal" font-weight="normal" text-decoration="" line-height="14px" x="14.412500381469727" y="11" data-layerId="ZbSflGdqC8B5">Запись</text><text fill="rgb(0, 0, 0)" stroke="none" font-family="Arial" font-size="12px" font-style="normal" font-weight="normal" text-decoration="" line-height="14px" x="57.11249923706055" y="11" data-layerId="ZbSflGdqC8B5">Avro</text></g></g><g data-width="100" data-height="44.8" data-layerId="ZbSflGdqC8B5" transform="translate(0.5,0.5) matrix(1,0,0,1,340,157.6)"><g><g transform="translate(0,0) scale(1,0.44799999999999995)"><g><path fill="#b7b7b7" stroke="#000000" data-layerId="ZbSflGdqC8B5" stroke-dasharray="1.7976931348623157e+308" vector-effect="non-scaling-stroke" d="M 0 0 L 100 0 Q 100 0 100 0 L 100 100 Q 100 100 100 100 L 0 100 Q 0 100 0 100 L 0 0 Q 0 0 0 0 Z" stroke-miterlimit="10"/><g transform="scale(1,2.232142857142857)"/></g></g></g></g><g transform="matrix(1,0,0,1,342,160)"><g><g><rect fill="rgb(0,0,0)" stroke="none" x="0" y="0" width="96" height="45" fill-opacity="0"/></g></g><g><g><rect fill="rgb(0,0,0)" stroke="none" x="0" y="0" width="96" height="14" fill-opacity="0"/></g></g><g><g><rect fill="rgb(0,0,0)" stroke="none" x="0" y="0" width="6" height="14" fill-opacity="0"/></g></g><g><g><rect fill="rgb(0,0,0)" stroke="none" x="6.675000190734863" y="0" width="77" height="14" fill-opacity="0"/></g><text fill="rgb(0, 0, 0)" stroke="none" font-family="Arial" font-size="12px" font-style="normal" font-weight="normal" text-decoration="" line-height="normal" x="6.675000190734863" y="11" data-layerId="ZbSflGdqC8B5">field1</text><text fill="rgb(0, 0, 0)" stroke="none" font-family="Arial" font-size="12px" font-style="normal" font-weight="normal" text-decoration="" line-height="normal" x="35.36249923706055" y="11" data-layerId="ZbSflGdqC8B5">:</text><text fill="rgb(0, 0, 0)" stroke="none" font-family="Arial" font-size="12px" font-style="normal" font-weight="normal" text-decoration="" line-height="normal" x="42.025001525878906" y="11" data-layerId="ZbSflGdqC8B5">value11</text></g><g><g><rect fill="rgb(0,0,0)" stroke="none" x="0" y="13.600000381469727" width="96" height="14" fill-opacity="0"/></g></g><g><g><rect fill="rgb(0,0,0)" stroke="none" x="0" y="13.600000381469727" width="6" height="14" fill-opacity="0"/></g></g><g><g><rect fill="rgb(0,0,0)" stroke="none" x="6.675000190734863" y="13.600000381469727" width="78" height="14" fill-opacity="0"/></g><text fill="rgb(0, 0, 0)" stroke="none" font-family="Arial" font-size="12px" font-style="normal" font-weight="normal" text-decoration="" line-height="normal" x="6.675000190734863" y="24.600000381469727" data-layerId="ZbSflGdqC8B5">field2</text><text fill="rgb(0, 0, 0)" stroke="none" font-family="Arial" font-size="12px" font-style="normal" font-weight="normal" text-decoration="" line-height="normal" x="35.36249923706055" y="24.600000381469727" data-layerId="ZbSflGdqC8B5">:</text><text fill="rgb(0, 0, 0)" stroke="none" font-family="Arial" font-size="12px" font-style="normal" font-weight="normal" text-decoration="" line-height="normal" x="42.025001525878906" y="24.600000381469727" data-layerId="ZbSflGdqC8B5">value12</text></g><g><g><rect fill="rgb(0,0,0)" stroke="none" x="0" y="27.200000762939453" width="96" height="14" fill-opacity="0"/></g></g><g><g><rect fill="rgb(0,0,0)" stroke="none" x="0" y="27.200000762939453" width="6" height="14" fill-opacity="0"/></g></g><g><g><rect fill="rgb(0,0,0)" stroke="none" x="6.675000190734863" y="27.200000762939453" width="10" height="14" fill-opacity="0"/></g><text fill="rgb(0, 0, 0)" stroke="none" font-family="Arial" font-size="12px" font-style="normal" font-weight="normal" text-decoration="" line-height="normal" x="6.675000190734863" y="38.20000076293945" data-layerId="ZbSflGdqC8B5">...</text></g><g><g><rect fill="rgb(0,0,0)" stroke="none" x="16.6875" y="27.200000762939453" width="3" height="14" fill-opacity="0"/></g></g></g><g data-width="100" data-height="17.6" data-layerId="ZbSflGdqC8B5" transform="translate(0.5,0.5) matrix(1,0,0,1,460,140)"><g><g transform="translate(0,0) scale(1,0.17600000000000002)"><g><path fill="#b7b7b7" stroke="#000000" data-layerId="ZbSflGdqC8B5" stroke-dasharray="1.7976931348623157e+308" vector-effect="non-scaling-stroke" d="M 0 0 L 100 0 Q 100 0 100 0 L 100 100 Q 100 100 100 100 L 0 100 Q 0 100 0 100 L 0 0 Q 0 0 0 0 Z" stroke-miterlimit="10"/><g transform="scale(1,5.681818181818182)"/></g></g></g></g><g transform="matrix(1,0,0,1,462,142)"><g><g><rect fill="rgb(0,0,0)" stroke="none" x="0" y="0" width="96" height="18" fill-opacity="0"/></g></g><g><g><rect fill="rgb(0,0,0)" stroke="none" x="0" y="0" width="96" height="14" fill-opacity="0"/></g></g><g><g><rect fill="rgb(0,0,0)" stroke="none" x="14.412500381469727" y="0" width="67" height="14" fill-opacity="0"/></g><text fill="rgb(0, 0, 0)" stroke="none" font-family="Arial" font-size="12px" font-style="normal" font-weight="normal" text-decoration="" line-height="14px" x="14.412500381469727" y="11" data-layerId="ZbSflGdqC8B5">Запись</text><text fill="rgb(0, 0, 0)" stroke="none" font-family="Arial" font-size="12px" font-style="normal" font-weight="normal" text-decoration="" line-height="14px" x="57.11249923706055" y="11" data-layerId="ZbSflGdqC8B5">Avro</text></g></g><g data-width="100" data-height="44.8" data-layerId="ZbSflGdqC8B5" transform="translate(0.5,0.5) matrix(1,0,0,1,460,157.6)"><g><g transform="translate(0,0) scale(1,0.44799999999999995)"><g><path fill="#b7b7b7" stroke="#000000" data-layerId="ZbSflGdqC8B5" stroke-dasharray="1.7976931348623157e+308" vector-effect="non-scaling-stroke" d="M 0 0 L 100 0 Q 100 0 100 0 L 100 100 Q 100 100 100 100 L 0 100 Q 0 100 0 100 L 0 0 Q 0 0 0 0 Z" stroke-miterlimit="10"/><g transform="scale(1,2.232142857142857)"/></g></g></g></g><g transform="matrix(1,0,0,1,462,160)"><g><g><rect fill="rgb(0,0,0)" stroke="none" x="0" y="0" width="96" height="45" fill-opacity="0"/></g></g><g><g><rect fill="rgb(0,0,0)" stroke="none" x="0" y="0" width="96" height="14" fill-opacity="0"/></g></g><g><g><rect fill="rgb(0,0,0)" stroke="none" x="0" y="0" width="84" height="14" fill-opacity="0"/></g><text fill="rgb(0, 0, 0)" stroke="none" font-family="Arial" font-size="12px" font-style="normal" font-weight="normal" text-decoration="" line-height="normal" x="6.662499904632568" y="11" data-layerId="ZbSflGdqC8B5">field1</text><text fill="rgb(0, 0, 0)" stroke="none" font-family="Arial" font-size="12px" font-style="normal" font-weight="normal" text-decoration="" line-height="normal" x="35.35000228881836" y="11" data-layerId="ZbSflGdqC8B5">:</text><text fill="rgb(0, 0, 0)" stroke="none" font-family="Arial" font-size="12px" font-style="normal" font-weight="normal" text-decoration="" line-height="normal" x="42.01250076293945" y="11" data-layerId="ZbSflGdqC8B5">value21</text></g><g><g><rect fill="rgb(0,0,0)" stroke="none" x="0" y="13.600000381469727" width="96" height="14" fill-opacity="0"/></g></g><g><g><rect fill="rgb(0,0,0)" stroke="none" x="0" y="13.600000381469727" width="6" height="14" fill-opacity="0"/></g></g><g><g><rect fill="rgb(0,0,0)" stroke="none" x="6.675000190734863" y="13.600000381469727" width="78" height="14" fill-opacity="0"/></g><text fill="rgb(0, 0, 0)" stroke="none" font-family="Arial" font-size="12px" font-style="normal" font-weight="normal" text-decoration="" line-height="normal" x="6.675000190734863" y="24.600000381469727" data-layerId="ZbSflGdqC8B5">field2</text><text fill="rgb(0, 0, 0)" stroke="none" font-family="Arial" font-size="12px" font-style="normal" font-weight="normal" text-decoration="" line-height="normal" x="35.36249923706055" y="24.600000381469727" data-layerId="ZbSflGdqC8B5">:</text><text fill="rgb(0, 0, 0)" stroke="none" font-family="Arial" font-size="12px" font-style="normal" font-weight="normal" text-decoration="" line-height="normal" x="42.025001525878906" y="24.600000381469727" data-layerId="ZbSflGdqC8B5">value22</text></g><g><g><rect fill="rgb(0,0,0)" stroke="none" x="0" y="27.200000762939453" width="96" height="14" fill-opacity="0"/></g></g><g><g><rect fill="rgb(0,0,0)" stroke="none" x="0" y="27.200000762939453" width="17" height="14" fill-opacity="0"/></g><text fill="rgb(0, 0, 0)" stroke="none" font-family="Arial" font-size="12px" font-style="normal" font-weight="normal" text-decoration="" line-height="normal" x="6.662499904632568" y="38.20000076293945" data-layerId="ZbSflGdqC8B5">...</text></g></g><g data-width="100" data-height="17.6" data-layerId="ZbSflGdqC8B5" transform="translate(0.5,0.5) matrix(1,0,0,1,580,140)"><g><g transform="translate(0,0) scale(1,0.17600000000000002)"><g><path fill="#b7b7b7" stroke="#000000" data-layerId="ZbSflGdqC8B5" stroke-dasharray="1.7976931348623157e+308" vector-effect="non-scaling-stroke" d="M 0 0 L 100 0 Q 100 0 100 0 L 100 100 Q 100 100 100 100 L 0 100 Q 0 100 0 100 L 0 0 Q 0 0 0 0 Z" stroke-miterlimit="10"/><g transform="scale(1,5.681818181818182)"/></g></g></g></g><g transform="matrix(1,0,0,1,582,142)"><g><g><rect fill="rgb(0,0,0)" stroke="none" x="0" y="0" width="96" height="18" fill-opacity="0"/></g></g><g><g><rect fill="rgb(0,0,0)" stroke="none" x="0" y="0" width="96" height="14" fill-opacity="0"/></g></g><g><g><rect fill="rgb(0,0,0)" stroke="none" x="14.412500381469727" y="0" width="67" height="14" fill-opacity="0"/></g><text fill="rgb(0, 0, 0)" stroke="none" font-family="Arial" font-size="12px" font-style="normal" font-weight="normal" text-decoration="" line-height="14px" x="14.412500381469727" y="11" data-layerId="ZbSflGdqC8B5">Запись</text><text fill="rgb(0, 0, 0)" stroke="none" font-family="Arial" font-size="12px" font-style="normal" font-weight="normal" text-decoration="" line-height="14px" x="57.11249923706055" y="11" data-layerId="ZbSflGdqC8B5">Avro</text></g></g><g data-width="100" data-height="44.8" data-layerId="ZbSflGdqC8B5" transform="translate(0.5,0.5) matrix(1,0,0,1,580,157.6)"><g><g transform="translate(0,0) scale(1,0.44799999999999995)"><g><path fill="#b7b7b7" stroke="#000000" data-layerId="ZbSflGdqC8B5" stroke-dasharray="1.7976931348623157e+308" vector-effect="non-scaling-stroke" d="M 0 0 L 100 0 Q 100 0 100 0 L 100 100 Q 100 100 100 100 L 0 100 Q 0 100 0 100 L 0 0 Q 0 0 0 0 Z" stroke-miterlimit="10"/><g transform="scale(1,2.232142857142857)"/></g></g></g></g><g transform="matrix(1,0,0,1,582,160)"><g><g><rect fill="rgb(0,0,0)" stroke="none" x="0" y="0" width="96" height="45" fill-opacity="0"/></g></g><g><g><rect fill="rgb(0,0,0)" stroke="none" x="0" y="0" width="96" height="14" fill-opacity="0"/></g></g><g><g><rect fill="rgb(0,0,0)" stroke="none" x="0" y="0" width="84" height="14" fill-opacity="0"/></g><text fill="rgb(0, 0, 0)" stroke="none" font-family="Arial" font-size="12px" font-style="normal" font-weight="normal" text-decoration="" line-height="normal" x="6.662499904632568" y="11" data-layerId="ZbSflGdqC8B5">field1</text><text fill="rgb(0, 0, 0)" stroke="none" font-family="Arial" font-size="12px" font-style="normal" font-weight="normal" text-decoration="" line-height="normal" x="35.35000228881836" y="11" data-layerId="ZbSflGdqC8B5">:</text><text fill="rgb(0, 0, 0)" stroke="none" font-family="Arial" font-size="12px" font-style="normal" font-weight="normal" text-decoration="" line-height="normal" x="42.01250076293945" y="11" data-layerId="ZbSflGdqC8B5">value31</text></g><g><g><rect fill="rgb(0,0,0)" stroke="none" x="0" y="13.600000381469727" width="96" height="14" fill-opacity="0"/></g></g><g><g><rect fill="rgb(0,0,0)" stroke="none" x="0" y="13.600000381469727" width="6" height="14" fill-opacity="0"/></g></g><g><g><rect fill="rgb(0,0,0)" stroke="none" x="6.675000190734863" y="13.600000381469727" width="78" height="14" fill-opacity="0"/></g><text fill="rgb(0, 0, 0)" stroke="none" font-family="Arial" font-size="12px" font-style="normal" font-weight="normal" text-decoration="" line-height="normal" x="6.675000190734863" y="24.600000381469727" data-layerId="ZbSflGdqC8B5">field2</text><text fill="rgb(0, 0, 0)" stroke="none" font-family="Arial" font-size="12px" font-style="normal" font-weight="normal" text-decoration="" line-height="normal" x="35.36249923706055" y="24.600000381469727" data-layerId="ZbSflGdqC8B5">:</text><text fill="rgb(0, 0, 0)" stroke="none" font-family="Arial" font-size="12px" font-style="normal" font-weight="normal" text-decoration="" line-height="normal" x="42.025001525878906" y="24.600000381469727" data-layerId="ZbSflGdqC8B5">value32</text></g><g><g><rect fill="rgb(0,0,0)" stroke="none" x="0" y="27.200000762939453" width="96" height="14" fill-opacity="0"/></g></g><g><g><rect fill="rgb(0,0,0)" stroke="none" x="0" y="27.200000762939453" width="17" height="14" fill-opacity="0"/></g><text fill="rgb(0, 0, 0)" stroke="none" font-family="Arial" font-size="12px" font-style="normal" font-weight="normal" text-decoration="" line-height="normal" x="6.662499904632568" y="38.20000076293945" data-layerId="ZbSflGdqC8B5">...</text></g></g></g></svg>