<svg version="1.1" xmlns="http://www.w3.org/2000/svg" xmlns:xlink="http://www.w3.org/1999/xlink" width="647.5" height="484"><style xmlns="http://www.w3.org/1999/xhtml"></style><defs/><g transform="translate(0,0)"><path fill="none" stroke="none" stroke-dasharray="undefined" vector-effect="non-scaling-stroke"/><g><rect fill="#FFFFFF" stroke="none" x="0" y="0" width="647.5" height="484"/></g><g data-width="430" data-height="329" data-layerId="X40RX8g8aSgm" transform="translate(0.5,0.5) matrix(1,0,0,1,89.5,75.65853658536582)"><g><g><g><path fill="#FFFFFF" stroke="#434343" stroke-dasharray="undefined" vector-effect="non-scaling-stroke" d="M 0 0 L 430 0 Q 430 0 430 0 L 430 329 Q 430 329 430 329 L 0 329 Q 0 329 0 329 L 0 0 Q 0 0 0 0 Z" stroke-miterlimit="10"/><g transform="scale(1,1)"/></g><g transform="translate(395,0) translate(0,5)"><g transform="translate(0,0) scale(0.3,0.2)"><g><path fill="#FFFFFF" stroke="#434343" stroke-dasharray="undefined" vector-effect="non-scaling-stroke" d="M 10 0 L 100 0 Q 100 0 100 0 L 100 100 Q 100 100 100 100 L 10 100 Q 10 100 10 100 L 10 0 Q 10 0 10 0 Z" stroke-miterlimit="10"/><g transform="scale(3.333333,5)"/></g><g><path fill="#FFFFFF" stroke="#434343" stroke-dasharray="undefined" vector-effect="non-scaling-stroke" d="M 0 16.67 L 20 16.67 Q 20 16.67 20 16.67 L 20 33.34 Q 20 33.34 20 33.34 L 0 33.34 Q 0 33.34 0 33.34 L 0 16.67 Q 0 16.67 0 16.67 Z" stroke-miterlimit="10"/><g transform="scale(3.333333,5)"/></g><g><path fill="#FFFFFF" stroke="#434343" stroke-dasharray="undefined" vector-effect="non-scaling-stroke" d="M 0 66.67 L 20 66.67 Q 20 66.67 20 66.67 L 20 83.34 Q 20 83.34 20 83.34 L 0 83.34 Q 0 83.34 0 83.34 L 0 66.67 Q 0 66.67 0 66.67 Z" stroke-miterlimit="10"/><g transform="scale(3.333333,5)"/></g></g></g></g></g></g><g data-width="120" data-height="60" data-layerId="X40RX8g8aSgm" transform="translate(0,0) matrix(1,0,0,1,350,150)"><g><g transform="translate(0,0) scale(1.2,0.6)"><g><g><path fill="#FFFFFF" stroke="#000000" stroke-dasharray="undefined" vector-effect="non-scaling-stroke" d="M 10 0 L 100 0 Q 100 0 100 0 L 100 100 Q 100 100 100 100 L 10 100 Q 10 100 10 100 L 10 0 Q 10 0 10 0 Z" stroke-miterlimit="10" stroke-width="2"/><g transform="scale(0.8333333333333334,1.6666666666666667)"/></g><g><path fill="#FFFFFF" stroke="#000000" stroke-dasharray="undefined" vector-effect="non-scaling-stroke" d="M 0 16.67 L 20 16.67 Q 20 16.67 20 16.67 L 20 33.34 Q 20 33.34 20 33.34 L 0 33.34 Q 0 33.34 0 33.34 L 0 16.67 Q 0 16.67 0 16.67 Z" stroke-miterlimit="10" stroke-width="2"/><g transform="scale(0.8333333333333334,1.6666666666666667)"/></g><g><path fill="#FFFFFF" stroke="#000000" stroke-dasharray="undefined" vector-effect="non-scaling-stroke" d="M 0 66.67 L 20 66.67 Q 20 66.67 20 66.67 L 20 83.34 Q 20 83.34 20 83.34 L 0 83.34 Q 0 83.34 0 83.34 L 0 66.67 Q 0 66.67 0 66.67 Z" stroke-miterlimit="10" stroke-width="2"/><g transform="scale(0.8333333333333334,1.6666666666666667)"/></g></g></g></g></g><g transform="matrix(1,0,0,1,352,159)"><g><g><rect fill="rgb(0,0,0)" stroke="none" x="0" y="0" width="116" height="42" fill-opacity="0"/></g></g><g><g><rect fill="rgb(0,0,0)" stroke="none" x="0" y="0" width="116" height="14" fill-opacity="0"/></g></g><g><g><rect fill="rgb(0,0,0)" stroke="none" x="37.152259826660156" y="0" width="43" height="14" fill-opacity="0"/></g></g><g><g><rect fill="rgb(0,0,0)" stroke="none" x="37.152259826660156" y="0" width="43" height="14" fill-opacity="0"/></g><text fill="rgb(0, 0, 0)" stroke="none" font-family="Arial" font-size="12px" font-style="normal" font-weight="normal" text-decoration="" line-height="14.000000953674316px" x="37.152259826660156" y="11" data-layerId="X40RX8g8aSgm">Сервис</text></g><g><g><rect fill="rgb(0,0,0)" stroke="none" x="0" y="13.913043975830078" width="116" height="28" fill-opacity="0"/></g></g><g><g><rect fill="rgb(0,0,0)" stroke="none" x="24.6484375" y="13.913043975830078" width="68" height="28" fill-opacity="0"/></g></g><g><g><rect fill="rgb(0,0,0)" stroke="none" x="24.6484375" y="13.913043975830078" width="68" height="28" fill-opacity="0"/></g><text fill="rgb(0, 0, 0)" stroke="none" font-family="Arial" font-size="12px" font-style="normal" font-weight="normal" text-decoration="" line-height="14.000000953674316px" x="24.6484375" y="24.913043975830078" data-layerId="X40RX8g8aSgm">исполнения</text><text fill="rgb(0, 0, 0)" stroke="none" font-family="Arial" font-size="12px" font-style="normal" font-weight="normal" text-decoration="" line-height="14.000000953674316px" x="32.022335052490234" y="38.826087951660156" data-layerId="X40RX8g8aSgm">запросов</text></g></g><g data-layerId="X40RX8g8aSgm" transform="matrix(1,0,0,1,395,235)"><g transform="translate(0,0)"><path fill="none" stroke="none" stroke-dasharray="undefined" vector-effect="non-scaling-stroke"/><g transform="translate(-407,-272) translate(12,37) matrix(1,0,0,1,0,0)"><g><g><path fill="none" stroke="#000000" stroke-dasharray="undefined" vector-effect="non-scaling-stroke" d="M 410 250 L 410 320" stroke-miterlimit="10" stroke-width="2"/></g></g></g></g></g><g data-width="20" data-height="20" data-layerId="X40RX8g8aSgm" transform="translate(0,0) matrix(6.123233995736766e-17,1,-1,6.123233995736766e-17,420,240)"><g><g transform="translate(0,0) scale(0.2,0.2)"><g transform="translate(50,0) translate(0,0) rotate(89.99998127603168,0,0) translate(0,0)"><g><path fill="rgb(0,0,0)" stroke="#000000" data-layerId="X40RX8g8aSgm" stroke-dasharray="undefined" vector-effect="non-scaling-stroke" d="M 0 0 C 4.713668e-15 38.49002 41.66667 62.54628 75 43.30127 C 90.47005 34.36963 100 17.86328 100 0" fill-opacity="0" stroke-miterlimit="10" stroke-width="2"/><g transform="scale(5,5)"/></g></g><g><path fill="#FFFFFF" stroke="#000000" data-layerId="X40RX8g8aSgm" stroke-dasharray="undefined" vector-effect="non-scaling-stroke" d="M 97 50 A 41 41 0 1 0 96.9999795000017 50.04099999316668 Z" stroke-miterlimit="10" stroke-width="2"/><g transform="scale(5,5)"/></g></g></g></g><g data-width="120.00000000000001" data-height="60" data-layerId="X40RX8g8aSgm" transform="translate(0,0) matrix(1,0,0,1,350,290)"><g><g transform="translate(0,0) scale(1.2000000000000002,0.6)"><g><g><path fill="#FFFFFF" stroke="#000000" data-layerId="X40RX8g8aSgm" stroke-dasharray="undefined" vector-effect="non-scaling-stroke" d="M 10 0 L 100 0 Q 100 0 100 0 L 100 100 Q 100 100 100 100 L 10 100 Q 10 100 10 100 L 10 0 Q 10 0 10 0 Z" stroke-miterlimit="10" stroke-width="2"/><g transform="scale(0.8333333333333333,1.6666666666666667)"/></g><g><path fill="#FFFFFF" stroke="#000000" data-layerId="X40RX8g8aSgm" stroke-dasharray="undefined" vector-effect="non-scaling-stroke" d="M 0 16.67 L 20 16.67 Q 20 16.67 20 16.67 L 20 33.34 Q 20 33.34 20 33.34 L 0 33.34 Q 0 33.34 0 33.34 L 0 16.67 Q 0 16.67 0 16.67 Z" stroke-miterlimit="10" stroke-width="2"/><g transform="scale(0.8333333333333333,1.6666666666666667)"/></g><g><path fill="#FFFFFF" stroke="#000000" data-layerId="X40RX8g8aSgm" stroke-dasharray="undefined" vector-effect="non-scaling-stroke" d="M 0 66.67 L 20 66.67 Q 20 66.67 20 66.67 L 20 83.34 Q 20 83.34 20 83.34 L 0 83.34 Q 0 83.34 0 83.34 L 0 66.67 Q 0 66.67 0 66.67 Z" stroke-miterlimit="10" stroke-width="2"/><g transform="scale(0.8333333333333333,1.6666666666666667)"/></g></g></g></g></g><g transform="matrix(1,0,0,1,352,292)"><g><g><rect fill="rgb(0,0,0)" stroke="none" x="0" y="0" width="116" height="56" fill-opacity="0"/></g></g><g><g><rect fill="rgb(0,0,0)" stroke="none" x="0" y="0" width="116" height="14" fill-opacity="0"/></g></g><g><g><rect fill="rgb(0,0,0)" stroke="none" x="37.152259826660156" y="0" width="43" height="14" fill-opacity="0"/></g></g><g><g><rect fill="rgb(0,0,0)" stroke="none" x="37.152259826660156" y="0" width="43" height="14" fill-opacity="0"/></g><text fill="rgb(0, 0, 0)" stroke="none" font-family="Arial" font-size="12px" font-style="normal" font-weight="normal" text-decoration="" line-height="14.000000953674316px" x="37.152259826660156" y="11" data-layerId="X40RX8g8aSgm">Сервис</text></g><g><g><rect fill="rgb(0,0,0)" stroke="none" x="0" y="13.913043975830078" width="116" height="14" fill-opacity="0"/></g></g><g><g><rect fill="rgb(0,0,0)" stroke="none" x="21.940813064575195" y="13.913043975830078" width="73" height="14" fill-opacity="0"/></g></g><g><g><rect fill="rgb(0,0,0)" stroke="none" x="21.940813064575195" y="13.913043975830078" width="73" height="14" fill-opacity="0"/></g><text fill="rgb(0, 0, 0)" stroke="none" font-family="Arial" font-size="12px" font-style="normal" font-weight="normal" text-decoration="" line-height="14.000000953674316px" x="21.940813064575195" y="24.913043975830078" data-layerId="X40RX8g8aSgm">мониторинга</text></g><g><g><rect fill="rgb(0,0,0)" stroke="none" x="0" y="27.826087951660156" width="116" height="14" fill-opacity="0"/></g></g><g><g><rect fill="rgb(0,0,0)" stroke="none" x="33.41924285888672" y="27.826087951660156" width="50" height="14" fill-opacity="0"/></g></g><g><g><rect fill="rgb(0,0,0)" stroke="none" x="33.41924285888672" y="27.826087951660156" width="50" height="14" fill-opacity="0"/></g><text fill="rgb(0, 0, 0)" stroke="none" font-family="Arial" font-size="12px" font-style="normal" font-weight="normal" text-decoration="" line-height="14.000000953674316px" x="33.41924285888672" y="38.826087951660156" data-layerId="X40RX8g8aSgm">статусов</text></g><g><g><rect fill="rgb(0,0,0)" stroke="none" x="0" y="41.739131927490234" width="116" height="14" fill-opacity="0"/></g></g><g><g><rect fill="rgb(0,0,0)" stroke="none" x="42.43079376220703" y="41.739131927490234" width="32" height="14" fill-opacity="0"/></g></g><g><g><rect fill="rgb(0,0,0)" stroke="none" x="42.43079376220703" y="41.739131927490234" width="32" height="14" fill-opacity="0"/></g><text fill="rgb(0, 0, 0)" stroke="none" font-family="Arial" font-size="12px" font-style="normal" font-weight="normal" text-decoration="" line-height="14.000000953674316px" x="42.43079376220703" y="52.739131927490234" data-layerId="X40RX8g8aSgm">Kafka</text></g></g><g data-layerId="X40RX8g8aSgm" transform="matrix(1,0,0,1,395,195)"><g transform="translate(0,0)"><path fill="none" stroke="none" stroke-dasharray="undefined" vector-effect="non-scaling-stroke"/><g transform="translate(-415,-212) translate(20,17) matrix(1,0,0,1,0,0)"><g><g><path fill="none" stroke="#000000" stroke-dasharray="undefined" vector-effect="non-scaling-stroke" d="M 410 210 L 410 215 Q 410 220 410 225 L 410 225 Q 410 230 410 235 L 410 240" stroke-miterlimit="10" stroke-width="2"/></g></g></g></g></g><g data-width="20" data-height="20" data-layerId="X40RX8g8aSgm" transform="translate(0,0) matrix(1,0,0,1,300,170)"><g><g transform="translate(0,0) scale(0.2,0.2)"><g transform="translate(50,0) translate(0,0) rotate(89.99998127603168,0,0) translate(0,0)"><g><path fill="rgb(0,0,0)" stroke="#000000" data-layerId="X40RX8g8aSgm" stroke-dasharray="undefined" vector-effect="non-scaling-stroke" d="M 0 0 C 4.713668e-15 38.49002 41.66667 62.54628 75 43.30127 C 90.47005 34.36963 100 17.86328 100 0" fill-opacity="0" stroke-miterlimit="10" stroke-width="2"/><g transform="scale(5,5)"/></g></g><g><path fill="#FFFFFF" stroke="#000000" data-layerId="X40RX8g8aSgm" stroke-dasharray="undefined" vector-effect="non-scaling-stroke" d="M 97 50 A 41 41 0 1 0 96.9999795000017 50.04099999316668 Z" stroke-miterlimit="10" stroke-width="2"/><g transform="scale(5,5)"/></g></g></g></g><g data-width="120" data-height="60" data-layerId="X40RX8g8aSgm" transform="translate(0,0) matrix(1,0,0,1,130,149.99999999999994)"><g><g transform="translate(0,0) scale(1.2,0.6)"><g><g><path fill="#FFFFFF" stroke="#000000" data-layerId="X40RX8g8aSgm" stroke-dasharray="undefined" vector-effect="non-scaling-stroke" d="M 10 0 L 100 0 Q 100 0 100 0 L 100 100 Q 100 100 100 100 L 10 100 Q 10 100 10 100 L 10 0 Q 10 0 10 0 Z" stroke-miterlimit="10" stroke-width="2"/><g transform="scale(0.8333333333333334,1.6666666666666667)"/></g><g><path fill="#FFFFFF" stroke="#000000" data-layerId="X40RX8g8aSgm" stroke-dasharray="undefined" vector-effect="non-scaling-stroke" d="M 0 16.67 L 20 16.67 Q 20 16.67 20 16.67 L 20 33.34 Q 20 33.34 20 33.34 L 0 33.34 Q 0 33.34 0 33.34 L 0 16.67 Q 0 16.67 0 16.67 Z" stroke-miterlimit="10" stroke-width="2"/><g transform="scale(0.8333333333333334,1.6666666666666667)"/></g><g><path fill="#FFFFFF" stroke="#000000" data-layerId="X40RX8g8aSgm" stroke-dasharray="undefined" vector-effect="non-scaling-stroke" d="M 0 66.67 L 20 66.67 Q 20 66.67 20 66.67 L 20 83.34 Q 20 83.34 20 83.34 L 0 83.34 Q 0 83.34 0 83.34 L 0 66.67 Q 0 66.67 0 66.67 Z" stroke-miterlimit="10" stroke-width="2"/><g transform="scale(0.8333333333333334,1.6666666666666667)"/></g></g></g></g></g><g transform="matrix(1,0,0,1,132,173)"><g><g><rect fill="rgb(0,0,0)" stroke="none" x="0" y="0" width="116" height="14" fill-opacity="0"/></g></g><g><g><rect fill="rgb(0,0,0)" stroke="none" x="0" y="0" width="116" height="14" fill-opacity="0"/></g></g><g><g><rect fill="rgb(0,0,0)" stroke="none" x="16.415592193603516" y="0" width="84" height="14" fill-opacity="0"/></g><text fill="rgb(0, 0, 0)" stroke="none" font-family="Arial" font-size="12px" font-style="normal" font-weight="normal" text-decoration="" line-height="14.000000953674316px" x="15.65217399597168" y="11" data-layerId="X40RX8g8aSgm">JDBC</text><text fill="rgb(0, 0, 0)" stroke="none" font-family="Arial" font-size="12px" font-style="normal" font-weight="normal" text-decoration="" line-height="14.000000953674316px" x="47.826087951660156" y="11" data-layerId="X40RX8g8aSgm">-драйвер</text></g><g><g><rect fill="rgb(0,0,0)" stroke="none" x="99.57626342773438" y="0" width="1" height="14" fill-opacity="0"/></g></g><g><g><rect fill="rgb(0,0,0)" stroke="none" x="99.57626342773438" y="0" width="1" height="14" fill-opacity="0"/></g></g></g><g data-layerId="X40RX8g8aSgm" transform="matrix(1,0,0,1,235,164.99999999999994)"><g transform="translate(0,0)"><path fill="none" stroke="none" stroke-dasharray="undefined" vector-effect="non-scaling-stroke"/><g transform="translate(-159,-182.99999999999994) translate(-76,18) matrix(1,0,0,1,0,0)"><g><g><path fill="none" stroke="#000000" stroke-dasharray="undefined" vector-effect="non-scaling-stroke" d="M 250 179.99999999999994 L 258.33333333333337 179.99999999999994 Q 266.6666666666667 179.99999999999994 275 179.99999999999994 L 275 179.99999999999994 Q 283.3333333333333 179.99999999999994 291.66666666666663 179.99999999999994 L 300 179.99999999999994" stroke-miterlimit="10" stroke-width="2"/></g></g></g></g></g><g data-layerId="X40RX8g8aSgm" transform="matrix(1,0,0,1,305,165)"><g transform="translate(0,0)"><path fill="none" stroke="none" stroke-dasharray="undefined" vector-effect="non-scaling-stroke"/><g transform="translate(-284,-183) translate(-21,18) matrix(1,0,0,1,0,0)"><g><g><path fill="none" stroke="#000000" stroke-dasharray="undefined" vector-effect="non-scaling-stroke" d="M 320 180 L 325 180 Q 330 180 335 180 L 335 180 Q 340 180 345 180 L 350 180" stroke-miterlimit="10" stroke-width="2"/></g></g></g></g></g><g data-layerId="X40RX8g8aSgm" transform="matrix(1,0,0,1,395,13)"><g transform="translate(0,0)"><path fill="none" stroke="none" stroke-dasharray="undefined" vector-effect="non-scaling-stroke"/><g transform="translate(-413,-90) translate(18,77) matrix(1,0,0,1,0,0)"><g><g><path fill="none" stroke="#000000" stroke-dasharray="undefined" vector-effect="non-scaling-stroke" d="M 410 28 L 410 58.66666666666666 Q 410 68.66666666666666 410 78.66666666666666 L 410 99.33333333333333 Q 410 109.33333333333333 410 119.33333333333333 L 410 150" stroke-miterlimit="10" stroke-width="2"/></g></g></g></g></g><g data-layerId="X40RX8g8aSgm" transform="matrix(1,0,0,1,454.99982982211213,149.95652198791504)"><g transform="translate(0,0)"><path fill="none" stroke="none" stroke-dasharray="undefined" vector-effect="non-scaling-stroke"/><g transform="translate(-451,-180.99999999999994) translate(-3.999829822112133,31.043478012084904) matrix(1,0,0,1,0,0)"><g><g><path fill="none" stroke="#000000" stroke-dasharray="undefined" vector-effect="non-scaling-stroke" d="M 469.99982982211213 164.95652198791504 L 491.49988654807476 164.95652198791504 Q 501.49988654807476 164.95652198791504 511.49988654807476 164.95652198791504 L 522.9999432740374 164.95652198791504 Q 532.9999432740374 164.95652198791504 542.9999432740374 164.95652198791504 L 564.5 164.95652198791504" stroke-miterlimit="10" stroke-width="2"/></g></g></g></g></g><g data-layerId="X40RX8g8aSgm" transform="matrix(1,0,0,1,395,335)"><g transform="translate(0,0)"><path fill="none" stroke="none" stroke-dasharray="undefined" vector-effect="non-scaling-stroke"/><g transform="translate(-630,-440) translate(235,105) matrix(1,0,0,1,0,0)"><g><g><path fill="none" stroke="#000000" stroke-dasharray="undefined" vector-effect="non-scaling-stroke" d="M 410 444 L 410 422.6666666666667 Q 410 412.6666666666667 410 402.6666666666667 L 410 391.3333333333333 Q 410 381.3333333333333 410 371.3333333333333 L 410 350" stroke-miterlimit="10" stroke-width="2"/></g></g></g></g></g><g data-layerId="X40RX8g8aSgm" transform="matrix(1,0,0,1,25,164.99999999999994)"><g transform="translate(0,0)"><path fill="none" stroke="none" stroke-dasharray="undefined" vector-effect="non-scaling-stroke"/><g transform="translate(-182,-469.9999999999999) translate(157,304.99999999999994) matrix(1,0,0,1,0,0)"><g><g><path fill="none" stroke="#000000" stroke-dasharray="undefined" vector-effect="non-scaling-stroke" d="M 40 179.99999999999994 L 60 179.99999999999994 Q 70 179.99999999999994 80 179.99999999999994 L 90 179.99999999999994 Q 100 179.99999999999994 110 179.99999999999994 L 130 179.99999999999994" stroke-miterlimit="10" stroke-width="2"/></g></g></g></g></g><g transform="matrix(1,0,0,1,-3,150)"><g><g><rect fill="rgb(0,0,0)" stroke="none" x="0" y="0" width="67" height="14" fill-opacity="0"/></g></g><g><g><rect fill="rgb(0,0,0)" stroke="none" x="0" y="0" width="67" height="14" fill-opacity="0"/></g></g><g><g><rect fill="rgb(0,0,0)" stroke="none" x="17.603601455688477" y="0" width="32" height="14" fill-opacity="0"/></g></g><g><g><rect fill="rgb(0,0,0)" stroke="none" x="17.603601455688477" y="0" width="32" height="14" fill-opacity="0"/></g><text fill="rgb(0, 0, 0)" stroke="none" font-family="Arial" font-size="12px" font-style="normal" font-weight="normal" text-decoration="" line-height="14.000000953674316px" x="17.603601455688477" y="11" data-layerId="X40RX8g8aSgm">JDBC</text></g></g><g transform="matrix(1,0,0,1,428,442)"><g><g><rect fill="rgb(0,0,0)" stroke="none" x="0" y="0" width="66" height="28" fill-opacity="0"/></g></g><g><g><rect fill="rgb(0,0,0)" stroke="none" x="0" y="0" width="66" height="14" fill-opacity="0"/></g></g><g><g><rect fill="rgb(0,0,0)" stroke="none" x="5.92858362197876" y="0" width="56" height="14" fill-opacity="0"/></g></g><g><g><rect fill="rgb(0,0,0)" stroke="none" x="5.92858362197876" y="0" width="56" height="14" fill-opacity="0"/></g><text fill="rgb(0, 0, 0)" stroke="none" font-family="Arial" font-size="12px" font-style="normal" font-weight="normal" text-decoration="" line-height="14.000000953674316px" x="5.217391490936279" y="11" data-layerId="X40RX8g8aSgm">API</text><text fill="rgb(0, 0, 0)" stroke="none" font-family="Arial" font-size="12px" font-style="normal" font-weight="normal" text-decoration="" line-height="14.000000953674316px" x="28.695653915405273" y="11" data-layerId="X40RX8g8aSgm">Kafka</text></g></g><g transform="matrix(1,0,0,1,541,134)"><g><g><rect fill="rgb(0,0,0)" stroke="none" x="0" y="0" width="67" height="14" fill-opacity="0"/></g></g><g><g><rect fill="rgb(0,0,0)" stroke="none" x="0" y="0" width="67" height="14" fill-opacity="0"/></g></g><g><g><rect fill="rgb(0,0,0)" stroke="none" x="5.8190388679504395" y="0" width="57" height="14" fill-opacity="0"/></g><text fill="rgb(0, 0, 0)" stroke="none" font-family="Arial" font-size="12px" font-style="normal" font-weight="normal" text-decoration="" line-height="14.000000953674316px" x="5.217391490936279" y="11" data-layerId="X40RX8g8aSgm">API</text><text fill="rgb(0, 0, 0)" stroke="none" font-family="Arial" font-size="12px" font-style="normal" font-weight="normal" text-decoration="" line-height="14.000000953674316px" x="25.217391967773438" y="11" data-layerId="X40RX8g8aSgm"> СУБД</text></g><g><g><rect fill="rgb(0,0,0)" stroke="none" x="61.178245544433594" y="0" width="1" height="14" fill-opacity="0"/></g></g><g><g><rect fill="rgb(0,0,0)" stroke="none" x="61.178245544433594" y="0" width="1" height="14" fill-opacity="0"/></g></g></g><g data-layerId="X40RX8g8aSgm" transform="matrix(1,0,0,1,454.9999023328729,185)"><g transform="translate(0,0)"><path fill="none" stroke="none" stroke-dasharray="undefined" vector-effect="non-scaling-stroke"/><g transform="translate(-730,-293.9999999999999) translate(275.0000976671271,108.99999999999989) matrix(1,0,0,1,0,0)"><g><g><path fill="none" stroke="#000000" stroke-dasharray="undefined" vector-effect="non-scaling-stroke" d="M 469.9999023328729 200 L 491.49993488858195 200 Q 501.49993488858195 200 511.49993488858195 200 L 522.999967444291 200 Q 532.999967444291 200 542.999967444291 200 L 564.5 200" stroke-miterlimit="10" stroke-width="2"/></g></g></g></g></g><g data-width="20" data-height="20" data-layerId="X40RX8g8aSgm" transform="translate(0,0) matrix(1,0,0,1,79.5,171)"><g><g transform="translate(0,0) scale(0.2,0.2)"><g><path fill="#FFFFFF" stroke="#000000" data-layerId="X40RX8g8aSgm" stroke-dasharray="1.7976931348623157e+308" vector-effect="non-scaling-stroke" d="M 0 0 L 100 0 Q 100 0 100 0 L 100 100 Q 100 100 100 100 L 0 100 Q 0 100 0 100 L 0 0 Q 0 0 0 0 Z" stroke-miterlimit="10" stroke-width="2"/><g transform="scale(5,5)"/></g></g></g></g><g transform="matrix(1,0,0,1,232,86)"><g><g><rect fill="rgb(0,0,0)" stroke="none" x="0" y="0" width="146" height="14" fill-opacity="0"/></g></g><g><g><rect fill="rgb(0,0,0)" stroke="none" x="0" y="0" width="146" height="14" fill-opacity="0"/></g></g><g><g><rect fill="rgb(0,0,0)" stroke="none" x="59.81148147583008" y="0" width="28" height="14" fill-opacity="0"/></g></g><g><g><rect fill="rgb(0,0,0)" stroke="none" x="59.81148147583008" y="0" width="28" height="14" fill-opacity="0"/></g><text fill="rgb(0, 0, 0)" stroke="none" font-family="Arial" font-size="12px" font-style="normal" font-weight="bold" text-decoration="" line-height="14.000000953674316px" x="59.81148147583008" y="11" data-layerId="X40RX8g8aSgm">DTM</text></g></g><g data-width="20" data-height="20" data-layerId="X40RX8g8aSgm" transform="translate(0,0) matrix(1,0,0,1,399.5,393)"><g><g transform="translate(0,0) scale(0.2,0.2)"><g><path fill="#FFFFFF" stroke="#000000" data-layerId="X40RX8g8aSgm" stroke-dasharray="1.7976931348623157e+308" vector-effect="non-scaling-stroke" d="M 0 0 L 100 0 Q 100 0 100 0 L 100 100 Q 100 100 100 100 L 0 100 Q 0 100 0 100 L 0 0 Q 0 0 0 0 Z" stroke-miterlimit="10" stroke-width="2"/><g transform="scale(5,5)"/></g></g></g></g><g data-width="20" data-height="20" data-layerId="X40RX8g8aSgm" transform="translate(0,0) matrix(1,0,0,1,509.5,191)"><g><g transform="translate(0,0) scale(0.2,0.2)"><g><path fill="#FFFFFF" stroke="#000000" data-layerId="X40RX8g8aSgm" stroke-dasharray="1.7976931348623157e+308" vector-effect="non-scaling-stroke" d="M 0 0 L 100 0 Q 100 0 100 0 L 100 100 Q 100 100 100 100 L 0 100 Q 0 100 0 100 L 0 0 Q 0 0 0 0 Z" stroke-miterlimit="10" stroke-width="2"/><g transform="scale(5,5)"/></g></g></g></g><g data-width="20" data-height="20" data-layerId="X40RX8g8aSgm" transform="translate(0,0) matrix(1,0,0,1,509.5,154.95652198791504)"><g><g transform="translate(0,0) scale(0.2,0.2)"><g><path fill="#FFFFFF" stroke="#000000" data-layerId="X40RX8g8aSgm" stroke-dasharray="1.7976931348623157e+308" vector-effect="non-scaling-stroke" d="M 0 0 L 100 0 Q 100 0 100 0 L 100 100 Q 100 100 100 100 L 0 100 Q 0 100 0 100 L 0 0 Q 0 0 0 0 Z" stroke-miterlimit="10" stroke-width="2"/><g transform="scale(5,5)"/></g></g></g></g><g data-width="20" data-height="20" data-layerId="X40RX8g8aSgm" transform="translate(0,0) matrix(1,0,0,1,399.5,66)"><g><g transform="translate(0,0) scale(0.2,0.2)"><g><path fill="#FFFFFF" stroke="#000000" data-layerId="X40RX8g8aSgm" stroke-dasharray="1.7976931348623157e+308" vector-effect="non-scaling-stroke" d="M 0 0 L 100 0 Q 100 0 100 0 L 100 100 Q 100 100 100 100 L 0 100 Q 0 100 0 100 L 0 0 Q 0 0 0 0 Z" stroke-miterlimit="10" stroke-width="2"/><g transform="scale(5,5)"/></g></g></g></g><g data-width="20" data-height="20" data-layerId="X40RX8g8aSgm" transform="translate(0,0) matrix(6.123233995736766e-17,1,-1,6.123233995736766e-17,420,444)"><g><g transform="translate(0,0) scale(0.2,0.2)"><g transform="translate(50,0) translate(0,0) rotate(89.99998127603168,0,0) translate(0,0)"><g><path fill="rgb(0,0,0)" stroke="#000000" data-layerId="X40RX8g8aSgm" stroke-dasharray="1.7976931348623157e+308" vector-effect="non-scaling-stroke" d="M 0 0 C 4.713668e-15 38.49002 41.66667 62.54628 75 43.30127 C 90.47005 34.36963 100 17.86328 100 0" fill-opacity="0" stroke-miterlimit="10" stroke-width="2"/><g transform="scale(5,5)"/></g></g></g></g></g><g data-width="20" data-height="20" data-layerId="X40RX8g8aSgm" transform="translate(0,0) matrix(1,0,0,1,564.5,190)"><g><g transform="translate(0,0) scale(0.2,0.2)"><g transform="translate(50,0) translate(0,0) rotate(89.99998127603168,0,0) translate(0,0)"><g><path fill="rgb(0,0,0)" stroke="#000000" data-layerId="X40RX8g8aSgm" stroke-dasharray="1.7976931348623157e+308" vector-effect="non-scaling-stroke" d="M 0 0 C 4.713668e-15 38.49002 41.66667 62.54628 75 43.30127 C 90.47005 34.36963 100 17.86328 100 0" fill-opacity="0" stroke-miterlimit="10" stroke-width="2"/><g transform="scale(5,5)"/></g></g></g></g></g><g data-width="20" data-height="20" data-layerId="X40RX8g8aSgm" transform="translate(0,0) matrix(1,0,0,1,564.5,154.95652198791504)"><g><g transform="translate(0,0) scale(0.2,0.2)"><g transform="translate(50,0) translate(0,0) rotate(89.99998127603168,0,0) translate(0,0)"><g><path fill="rgb(0,0,0)" stroke="#000000" data-layerId="X40RX8g8aSgm" stroke-dasharray="1.7976931348623157e+308" vector-effect="non-scaling-stroke" d="M 0 0 C 4.713668e-15 38.49002 41.66667 62.54628 75 43.30127 C 90.47005 34.36963 100 17.86328 100 0" fill-opacity="0" stroke-miterlimit="10" stroke-width="2"/><g transform="scale(5,5)"/></g></g></g></g></g><g data-width="20" data-height="20" data-layerId="X40RX8g8aSgm" transform="translate(0,0) matrix(-1.8369701987210297e-16,-1,1,-1.8369701987210297e-16,400,28.000000000000004)"><g><g transform="translate(0,0) scale(0.2,0.2)"><g transform="translate(50,0) translate(0,0) rotate(89.99998127603168,0,0) translate(0,0)"><g><path fill="rgb(0,0,0)" stroke="#000000" data-layerId="X40RX8g8aSgm" stroke-dasharray="1.7976931348623157e+308" vector-effect="non-scaling-stroke" d="M 0 0 C 4.713668e-15 38.49002 41.66667 62.54628 75 43.30127 C 90.47005 34.36963 100 17.86328 100 0" fill-opacity="0" stroke-miterlimit="10" stroke-width="2"/><g transform="scale(5,5)"/></g></g></g></g></g><g data-width="20" data-height="20" data-layerId="X40RX8g8aSgm" transform="translate(0,0) matrix(1,0,0,1,20,170)"><g><g transform="translate(0,0) scale(0.2,0.2)"><g><path fill="#FFFFFF" stroke="#000000" data-layerId="X40RX8g8aSgm" stroke-dasharray="1.7976931348623157e+308" vector-effect="non-scaling-stroke" d="M 100 50 A 50 50 0 1 0 99.99997500000208 50.04999999166668 Z" stroke-miterlimit="10" stroke-width="2"/><g transform="scale(5,5)"/></g></g></g></g><g transform="matrix(1,0,0,1,522,222)"><g><g><rect fill="rgb(0,0,0)" stroke="none" x="0" y="0" width="106" height="28" fill-opacity="0"/></g></g><g><g><rect fill="rgb(0,0,0)" stroke="none" x="0" y="0" width="106" height="14" fill-opacity="0"/></g></g><g><g><rect fill="rgb(0,0,0)" stroke="none" x="41.493717193603516" y="0" width="24" height="14" fill-opacity="0"/></g><text fill="rgb(0, 0, 0)" stroke="none" font-family="Arial" font-size="12px" font-style="normal" font-weight="normal" text-decoration="" line-height="14.000000953674316px" x="40.86956787109375" y="11" data-layerId="X40RX8g8aSgm">API</text></g><g><g><rect fill="rgb(0,0,0)" stroke="none" x="0" y="13.913043975830078" width="106" height="14" fill-opacity="0"/></g></g><g><g><rect fill="rgb(0,0,0)" stroke="none" x="17.930538177490234" y="13.913043975830078" width="71" height="14" fill-opacity="0"/></g><text fill="rgb(0, 0, 0)" stroke="none" font-family="Arial" font-size="12px" font-style="normal" font-weight="normal" text-decoration="" line-height="normal" x="17.930538177490234" y="24.913043975830078" data-layerId="X40RX8g8aSgm">коннекторов</text></g></g><g transform="matrix(1,0,0,1,422,18)"><g><g><rect fill="rgb(0,0,0)" stroke="none" x="0" y="0" width="106" height="14" fill-opacity="0"/></g></g><g><g><rect fill="rgb(0,0,0)" stroke="none" x="0" y="0" width="106" height="14" fill-opacity="0"/></g></g><g><g><rect fill="rgb(0,0,0)" stroke="none" x="11.376953125" y="0" width="23" height="14" fill-opacity="0"/></g><text fill="rgb(0, 0, 0)" stroke="none" font-family="Arial" font-size="12px" font-style="normal" font-weight="normal" text-decoration="" line-height="14.000000953674316px" x="11.30434799194336" y="11" data-layerId="X40RX8g8aSgm">API</text></g><g><g><rect fill="rgb(0,0,0)" stroke="none" x="34.381370544433594" y="0" width="61" height="14" fill-opacity="0"/></g><text fill="rgb(0, 0, 0)" stroke="none" font-family="Arial" font-size="12px" font-style="normal" font-weight="normal" text-decoration="" line-height="normal" x="34.381370544433594" y="11" data-layerId="X40RX8g8aSgm">ZooKeeper</text></g></g></g></svg>